<svg xmlns="http://www.w3.org/2000/svg" viewBox="0 0 24 24">
	<title>Arcane Labyrinth</title>
	<path fill="#B47B34" d="M12,0C5.4,0,0,5.4,0,12s5.4,12,12,12s12-5.4,12-12S18.6,0,12,0z M12,22.9C6,22.9,1.1,18,1.1,12C1.1,6,6,1.1,12,1.1C18,1.1,22.9,6,22.9,12C22.9,18,18,22.9,12,22.9z"/>
	<path fill="#B47B34" d="M10.4,11.5h2.2v6.3h1V8.4h-0.4h-0.6h-2.2H9.8H9.4v5.2h1V11.5z M12.6,9.4v1h-2.2v-1H12.6z M13.6,18.4l-2.1,2.1l-1.1-1.1v-4.7h-1v5.1l0,0l1.4,1.4l0,0l0.7,0.7l0,0l0,0l0.7-0.7l0,0l1.4-1.4L13.6,18.4z M12,6.3V2.2h-1v4.2H6.4v1h10.3v-1H12z"/>
	<circle fill="#E3C176" cx="18.5" cy="12.1" r="1.5"/>
	<path fill="#E3C176" d="M0.3,20c0,0-1,4.2,3.3,3c1.7-0.5,3-1.2,5.5-2.8c3.1-2,6.9-5.2,10.9-10.8c3.8-5.3,3.7-7.7,2.7-8.6c-0.9-0.9-2.5-0.5-2.5-0.5s3-0.8,3.6,1.1c0.6,2-0.3,4.9-3.5,9.3c-1,1.4-2,2.7-3.6,4.3c-2.6,2.8-5.4,5-8.2,6.7c-1.8,1.1-5,3-7.2,2C0.1,23.2-0.2,21.8,0.3,20z"/>
</svg>