<svg xmlns="http://www.w3.org/2000/svg" viewBox="0 0 960 350">
	<title>Not Available</title>
	<path fill="#aaa" opacity=".5" d="M143.625,228.765c3.194,-1.111 6.434,-2.207 9.717,-3.287l0.458,-28.728c4.05,-0.3 7.5,-2.05 10.05,-5.05c7.55,-8.8 5.1,-26.2 4.8,-28.15c-0.35,-2.3 -2.55,-3.9 -4.85,-3.55c-2.3,0.35 -3.9,2.55 -3.55,4.85c0.6,3.95 1.4,16.35 -2.9,21.35c-0.9,1.1 -2.05,1.75 -3.45,2l0.4,-23.65c0.05,-3.45 -2.7,-6.25 -6.15,-6.25c-3.45,0 -6.25,2.85 -6.15,6.3l1.1,44.85c-1.5,-0.25 -2.65,-0.9 -3.6,-2c-4.3,-5 -3.5,-17.4 -2.9,-21.35c0.35,-2.3 -1.2,-4.5 -3.55,-4.85c-2.35,-0.35 -4.5,1.25 -4.85,3.55c-0.3,1.95 -2.75,19.3 4.85,28.2c2.6,3.05 6.15,4.75 10.3,5.05l0.275,10.715Zm607.17,-19.104c5.037,1.221 10.011,2.476 14.914,3.764l0.941,-57.325c6.35,-0.5 11.75,-3.2 15.8,-7.9c12,-13.95 8.15,-41.2 7.65,-44.25c-0.6,-3.65 -4,-6.15 -7.65,-5.55c-3.65,0.55 -6.1,4 -5.55,7.6c0.95,6.2 2.2,25.7 -4.55,33.5c-1.45,1.7 -3.2,2.7 -5.4,3.1l0.6,-37.05c0.1,-5.4 -4.25,-9.8 -9.65,-9.8c-5.45,0 -9.8,4.45 -9.65,9.9l1.75,70.35c-2.3,-0.35 -4.15,-1.4 -5.65,-3.15c-6.7,-7.85 -5.5,-27.3 -4.55,-33.5c0.55,-3.65 -1.95,-7.05 -5.55,-7.6c-3.65,-0.55 -7.05,1.9 -7.65,5.55c-0.5,3.05 -4.35,30.3 7.6,44.25c4.1,4.8 9.65,7.5 16.1,7.9l0.495,20.211Z"/>
	<path fill="url(#_Linear1)" d="M480,180.05c-265.1,0 -480,76.1 -480,169.95l960,0c0,-93.85 -214.9,-169.95 -480,-169.95Z"/>
	<path fill="url(#_Linear2)" d="M398.55,174.75l-13.15,0c-10.95,0 -19.85,-8.9 -19.85,-19.85c0,-2.8 -2.3,-5.1 -5.1,-5.1l-15.25,0c-4.05,0 -7.35,-3.3 -7.35,-7.35c0,-4.05 3.3,-7.35 7.35,-7.35l15.25,0c10.95,0 19.85,8.9 19.85,19.85c0,2.8 2.3,5.1 5.1,5.1l13.15,0c4.05,0 7.35,3.3 7.35,7.35c-0,4.05 -3.3,7.35 -7.35,7.35Z"/>
	<path fill="url(#_Linear3)" d="M441.85,0c-39.2,0 -72.35,32.9 -73.3,71.9c-0.9,41.8 -0.3,83.1 6.6,124.4c3.3,16.45 7.5,32.3 12.8,48.2c2.25,6.3 9.45,11.35 15.8,11.35l1.15,0c6.35,0 9.15,-4.95 6.65,-11.15c-1.7,-4.2 0.45,-7.6 4.65,-7.55c4.2,0.05 8.9,3.5 10.7,7.7c2.65,6.1 10.3,11 16.65,11l1.15,0c6.35,0 8.7,-4.8 5.8,-10.8c-2,-4.1 0,-7.4 4.15,-7.35c4.2,0.05 9.1,3.45 11.2,7.5c3.1,5.95 11.15,10.7 17.5,10.7l1.15,0c6.35,0 8.3,-4.65 4.95,-10.5c-2.25,-4 -0.5,-7.2 3.65,-7.15c4.2,0.05 9.3,3.35 11.65,7.3c3.5,5.75 11.95,10.35 18.3,10.35l0.6,0c6.65,0 8.3,-4.7 4.35,-10.65c-8.7,-14.45 -14.9,-28.65 -19.6,-44.8c-9.35,-42.35 -5.45,-84.2 -0.65,-126.85c4.9,-40 -25.65,-73.6 -65.9,-73.6Z"/>
	<path fill="rgb(180,123,52)" d="M451.85,174.75l-13.15,0c-10.95,0 -19.85,-8.9 -19.85,-19.85c0,-2.8 -2.3,-5.1 -5.1,-5.1l-15.25,0c-4.05,0 -7.35,-3.3 -7.35,-7.35c0,-4.05 3.3,-7.35 7.35,-7.35l15.25,0c10.95,0 19.85,8.9 19.85,19.85c0,2.8 2.3,5.1 5.1,5.1l13.15,0c4.05,0 7.35,3.3 7.35,7.35c-0,4.05 -3.3,7.35 -7.35,7.35Z"/>
	<path fill="#000" opacity=".6" d="M420.6,109.65c0,8.75 -4.9,15.9 -10.9,15.9c-6,0 -10.9,-7.1 -10.9,-15.9c0,-8.75 4.9,-15.9 10.9,-15.9c6,0 10.9,7.1 10.9,15.9Zm-7,-50.45c-8.25,3.5 6.55,49.7 29.55,35.15c14,-8.9 1.4,-17.6 -12.85,-22.9c-8.6,-3.2 -11.7,-14.35 -16.7,-12.25Zm-31.2,27.3c6.9,4.9 18.15,-3.75 12.7,-23c-0.25,-0.95 -1.65,-1.2 -2.1,-0.15c-5,11.95 -18.8,17.35 -10.6,23.15Z"/>
	<defs>
		<linearGradient id="_Linear1" x1="0" y1="0" x2="1" y2="0" gradientUnits="userSpaceOnUse" gradientTransform="matrix(8.16954e-15,133.419,-133.419,8.16954e-15,480,141.563)">
			<stop offset="0" stop-color="#aaa" stop-opacity=".5"/>
			<stop offset="1" stop-color="#fff" stop-opacity="0"/>
		</linearGradient>
		<linearGradient id="_Linear2" x1="0" y1="0" x2="1" y2="0" gradientUnits="userSpaceOnUse" gradientTransform="matrix(27.6086,21.7682,-21.7682,27.6086,344.504,133.319)">
			<stop offset="0" stop-color="rgb(198,152,95)" stop-opacity="1"/>
			<stop offset="1" stop-color="rgb(180,123,52)" stop-opacity="1"/>
		</linearGradient>
		<linearGradient id="_Linear3" x1="0" y1="0" x2="1" y2="0" gradientUnits="userSpaceOnUse" gradientTransform="matrix(151.848,209.188,-209.188,151.848,366.917,32.7867)">
			<stop offset="0" stop-color="rgb(198,152,95)" stop-opacity="1"/>
			<stop offset="1" stop-color="rgb(180,123,52)" stop-opacity="1"/>
		</linearGradient>
	</defs>
</svg>