<svg width="72" height="72" viewBox="0 0 72 72" fill="none" xmlns="http://www.w3.org/2000/svg">
<path fill-rule="evenodd" clip-rule="evenodd" d="M52.3828 -0.0703125C53.2688 -0.0703125 54.1687 -0.0703125 55.0547 -0.0703125C56.5594 0.39375 57.7547 1.27969 58.6406 2.60156C63.1547 11.5312 67.5844 20.4891 71.9297 29.4609C71.9297 30.3047 71.9297 31.1484 71.9297 31.9922C71.2547 34.3547 69.7078 35.8172 67.2891 36.3516C67.5422 49.9359 61.9594 60.3141 50.5547 67.5C46.2094 69.9609 41.5687 71.4375 36.6328 71.9297C34.6219 71.9297 32.5969 71.9297 30.5859 71.9297C23.3156 71.1703 16.9172 68.4 11.3906 63.6328C11.0391 62.3391 11.5312 61.8047 12.8672 62.0156C21.6 69.1594 31.4437 71.325 42.3984 68.4844C54.0984 64.6453 61.4391 56.7422 64.4062 44.7891C64.9547 42.0469 65.1656 39.2906 65.0391 36.4922C64.2375 36.4922 63.45 36.4922 62.6484 36.4922C62.9016 48.4875 57.9375 57.5578 47.7422 63.7031C39.7406 67.8516 31.4859 68.4141 22.9922 65.3906C20.475 64.3641 18.1266 63.0562 15.9609 61.4531C14.8078 60.3562 14.6953 59.1609 15.6094 57.8672C16.2703 57.2344 16.9031 56.5734 17.5078 55.8984C17.0719 55.2656 16.6781 54.6047 16.3125 53.9297C15.3844 54.9422 14.3859 55.8562 13.2891 56.6719C12.4453 56.9813 11.6578 56.8969 10.8984 56.3906C5.80781 49.9359 3.76875 42.5953 4.78125 34.3828C5.5125 29.1656 7.48125 24.4688 10.6875 20.3203C11.1375 19.6875 11.6719 19.1531 12.3047 18.7031C13.0219 18.5203 13.5141 18.7875 13.7812 19.4766C13.8656 19.8844 13.7672 20.2641 13.5 20.6016C7.25625 28.0406 5.37188 36.4781 7.875 45.9141C8.85938 49.1063 10.3641 52.0031 12.375 54.6328C13.4297 53.5781 14.4844 52.5234 15.5391 51.4688C15.2719 50.5828 15.1031 49.6687 15.0469 48.7266C14.9062 43.6641 14.9625 38.6016 15.1875 33.5391C16.4812 30.4312 18.7172 29.4891 21.8672 30.7266C21.9797 27.8719 22.05 25.0031 22.0781 22.1484C22.8516 19.5047 24.6094 18.3094 27.3516 18.5625C27.9422 18.6328 28.4906 18.8438 28.9688 19.1953C29.0953 15.1875 31.1344 13.4719 35.0859 14.0625C36.5063 14.5687 37.4906 15.5391 38.0391 16.9453C39.2063 16.2562 40.4438 16.0734 41.7656 16.3828C42.3281 15.3844 42.8625 14.3719 43.3828 13.3594C33.7219 9.87188 24.8203 11.2359 16.6641 17.4375C15.3281 17.5359 14.8781 16.9594 15.3281 15.6797C22.7812 9.9 31.1484 8.00156 40.4297 9.98438C41.7375 10.3219 43.0312 10.7297 44.2969 11.1797C44.7469 10.5328 45.1406 9.85781 45.4922 9.14062C34.5094 5.04844 24.2438 6.35625 14.6953 13.0781C5.03438 20.8828 0.970312 30.9797 2.53125 43.3828C3.52969 49.1625 5.92031 54.2812 9.70312 58.7109C10.1953 60.1875 9.70312 60.7781 8.22656 60.4688C3.4875 54.9844 0.717187 48.6422 -0.0703125 41.4141C-0.0703125 39.3469 -0.0703125 37.2937 -0.0703125 35.2266C1.6875 21.6281 8.85938 12.1359 21.4453 6.75C28.0687 4.34531 34.8187 3.92344 41.6953 5.48438C43.3125 5.87812 44.8875 6.42656 46.4062 7.10156C47.2922 5.41406 48.1922 3.72656 49.0781 2.03906C49.95 0.95625 51.0609 0.253125 52.3828 -0.0703125ZM52.6641 2.17969C54.4781 1.85625 55.8562 2.46094 56.8125 4.00781C60.9891 12.3469 65.1516 20.7 69.3281 29.0391C70.1578 31.275 69.525 32.9344 67.4297 34.0312C58.4297 34.2703 49.4297 34.3125 40.4297 34.1719C38.1234 33.4125 37.2516 31.8516 37.8281 29.4609C42.0891 20.925 46.3641 12.4031 50.625 3.86719C51.1172 3.06563 51.8063 2.50312 52.6641 2.17969ZM33.1172 16.1016C34.4531 16.0031 35.3672 16.5656 35.8594 17.7891C35.9578 21.3047 35.9578 24.8203 35.8594 28.3359C35.1984 29.925 35.1984 31.5281 35.8594 33.1172C35.8734 34.6781 35.9578 36.225 36.1406 37.7578C36.675 38.2219 37.2656 38.2922 37.8984 37.9688C38.1094 37.2656 38.25 36.5344 38.3203 35.7891C39.7969 36.4219 41.3438 36.6609 42.9609 36.4922C42.9328 37.2375 42.9609 37.9969 43.0312 38.7422C43.7344 39.6703 44.4375 39.6703 45.1406 38.7422C45.2109 37.9969 45.2391 37.2375 45.2109 36.4922C46.8 36.4922 48.4031 36.4922 49.9922 36.4922C50.0203 40.4297 49.9922 44.3672 49.9219 48.3047C49.4016 53.4094 46.8422 57.0938 42.2578 59.3438C41.1328 59.8219 39.9516 60.1594 38.7422 60.3281C35.325 60.4266 31.8937 60.4266 28.4766 60.3281C21.9656 59.0625 18.2391 55.1531 17.2969 48.5859C17.1984 43.8469 17.1984 39.1219 17.2969 34.3828C17.8453 32.7516 18.9563 32.1609 20.6016 32.625C21.0938 32.9344 21.4875 33.3281 21.7969 33.8203C21.9797 36.2953 22.0641 38.7844 22.0781 41.2734C22.275 41.9344 22.6687 42.4266 23.2734 42.75C28.4625 43.5516 31.2188 46.575 31.5703 51.8203C32.3156 52.4109 32.9484 52.3266 33.4688 51.5391C33.4547 46.0969 30.8531 42.5531 25.6641 40.9219C25.2 40.8094 24.7359 40.7391 24.2578 40.7109C24.1875 34.5094 24.2578 28.3219 24.4688 22.1484C25.3688 20.6859 26.5641 20.3906 28.0547 21.2344C28.3641 21.5438 28.6172 21.8953 28.8281 22.2891C29.0109 27.3937 29.1094 32.4984 29.1094 37.6172C29.1797 37.8703 29.3484 38.0391 29.6016 38.1094C30.4875 38.3625 31.0219 38.0531 31.2188 37.1953C31.2609 30.7266 31.3172 24.2578 31.3594 17.7891C31.6547 16.9031 32.2453 16.3406 33.1172 16.1016ZM39.8672 18.4922C40.1625 18.45 40.4438 18.4922 40.7109 18.6328C39.8953 20.2781 39.0656 21.9094 38.25 23.5547C38.1234 22.3313 38.1797 21.1078 38.3906 19.8984C38.7281 19.2516 39.2203 18.7875 39.8672 18.4922ZM52.2422 36.4922C54.9562 36.4922 57.6844 36.4922 60.3984 36.4922C60.5812 48.4031 55.4344 57.1078 44.9297 62.5781C38.1516 65.5312 31.2609 65.8125 24.2578 63.4219C21.6984 62.4656 19.35 61.1578 17.2266 59.4844C17.7609 58.9219 18.3234 58.3875 18.9141 57.8672C21.5156 60.4828 24.6656 62.0578 28.3359 62.5781C31.8516 62.6766 35.3672 62.6766 38.8828 62.5781C45.2812 61.5234 49.5281 57.9375 51.6094 51.8203C51.9188 50.7094 52.1016 49.5844 52.1719 48.4453C52.2422 44.4656 52.2703 40.4719 52.2422 36.4922ZM51.9609 8.64844C53.2828 8.59219 54.5906 8.6625 55.8984 8.85938C57.7406 9.84375 58.4156 11.3625 57.9375 13.4297C57.7547 15.7359 57.4734 18.0422 57.0938 20.3203C55.8422 22.4297 54.0844 23.0062 51.8203 22.0781C50.5406 21.2344 49.9078 20.0391 49.9219 18.4922C49.6406 16.1578 49.4578 13.8094 49.3594 11.4609C49.725 10.0406 50.5969 9.09844 51.9609 8.64844ZM52.3828 10.8984C51.8484 11.1797 51.5672 11.6156 51.5391 12.2344C51.7641 14.2734 51.975 16.3125 52.1719 18.3516C52.2 18.7875 52.2984 19.2094 52.4531 19.6172C53.7469 20.6719 54.6328 20.3906 55.125 18.7734C55.4203 16.3828 55.6031 13.9922 55.6875 11.6016C55.575 11.2922 55.3641 11.0813 55.0547 10.9688C54.1687 10.8984 53.2688 10.8703 52.3828 10.8984ZM52.8047 24.9609C55.3641 24.7219 56.8125 25.875 57.1641 28.4062C56.9531 30.5016 55.8 31.6406 53.7188 31.8516C52.0312 31.7531 50.9062 30.9094 50.3438 29.3203C49.9641 27.1547 50.7797 25.7063 52.8047 24.9609ZM53.2266 27.2109C52.5938 27.5906 52.3828 28.1531 52.5938 28.8984C53.6062 29.9109 54.3797 29.7422 54.9141 28.4062C54.7172 27.4922 54.1547 27.0984 53.2266 27.2109Z" fill="#475467"/>
</svg>
