<svg width="512" height="512" viewBox="0 0 512 512" fill="none" xmlns="http://www.w3.org/2000/svg">
<path d="M281.4 482.1H273.1C272.5 482.1 272.1 481.7 272.1 481.1C272.1 480.5 272.5 480.1 273.1 480.1H281.4C282 480.1 282.4 480.5 282.4 481.1C282.4 481.7 281.9 482.1 281.4 482.1ZM224.3 473.1H216C215.4 473.1 215 472.7 215 472.1C215 471.5 215.4 471.1 216 471.1H224.3C224.9 471.1 225.3 471.5 225.3 472.1C225.3 472.7 224.9 473.1 224.3 473.1ZM293.3 472.8H285C284.4 472.8 284 472.4 284 471.8C284 471.2 284.4 470.8 285 470.8H293.3C293.9 470.8 294.3 471.2 294.3 471.8C294.3 472.4 293.9 472.8 293.3 472.8ZM402.1 465H393.8C393.2 465 392.8 464.6 392.8 464C392.8 463.4 393.2 463 393.8 463H402.1C402.7 463 403.1 463.4 403.1 464C403.1 464.6 402.6 465 402.1 465ZM264.4 464.2H257.1C256.5 464.2 256.1 463.8 256.1 463.2C256.1 462.6 256.5 462.2 257.1 462.2H264.4C265 462.2 265.4 462.6 265.4 463.2C265.4 463.8 265 464.2 264.4 464.2ZM250.2 464.2H236.7C236.1 464.2 235.7 463.8 235.7 463.2C235.7 462.6 236.1 462.2 236.7 462.2H250.2C250.8 462.2 251.2 462.6 251.2 463.2C251.2 463.8 250.8 464.2 250.2 464.2ZM349.5 464H313C312.4 464 312 463.6 312 463C312 462.4 312.4 462 313 462H349.5C350.1 462 350.5 462.4 350.5 463C350.5 463.6 350 464 349.5 464ZM142.9 462.6H119.6C119 462.6 118.6 462.2 118.6 461.6C118.6 461 119 460.6 119.6 460.6H120.8C119.9 459.6 119.5 458.2 119.5 456.8C119.5 455.4 120.1 454 121.1 453C121.9 452.2 123 451.7 124.1 451.5V449.8H118.6C118.3 449.8 118 449.6 117.8 449.4L110 438.6H100.7C100.1 438.6 99.7 438.2 99.7 437.6C99.7 437 100.1 436.6 100.7 436.6H108.5L104.1 430.5C103.9 430.2 103.8 429.8 104 429.5C104.2 429.2 104.5 429 104.9 429H107C108.6 426.2 111.5 424.4 114.7 424.2C117.1 421.3 120.7 419.6 124.4 419.6C127.9 419.6 131.3 421.1 133.7 423.7C134 423.7 134.3 423.7 134.7 423.7C138.5 423.7 142 425.8 143.9 429.1H150.8C151.2 429.1 151.5 429.3 151.7 429.6C151.9 429.9 151.8 430.3 151.6 430.6L138.5 449.5C138.3 449.8 138 449.9 137.7 449.9H134.5L139.1 453.7L156 428.7C155.8 428.3 155.7 427.9 155.7 427.5C155.7 426.1 156.8 425 158.2 425H165.5C166.9 425 168 426.1 168 427.5C168 428.9 166.9 430 165.5 430H158.2C158 430 157.7 430 157.5 429.9L140.1 455.6C139.9 455.8 139.7 456 139.4 456C139.1 456 138.8 456 138.6 455.8L131.2 449.8H126V451.5C127.1 451.7 128.1 452.2 128.9 453C129.9 454 130.5 455.4 130.5 456.8C130.5 458.2 130.1 459.5 129.2 460.6H142.7C143.3 460.6 143.7 461 143.7 461.6C143.7 462.2 143.4 462.6 142.9 462.6ZM125.1 453.4C124.2 453.4 123.3 453.7 122.6 454.4C122 455 121.6 455.9 121.6 456.8C121.6 457.8 121.9 458.7 122.6 459.4C123.3 460.1 124.2 460.5 125.1 460.5C126.1 460.5 127 460.1 127.6 459.4C128.3 458.7 128.7 457.8 128.6 456.8C128.6 455.9 128.2 455 127.6 454.4C126.9 453.8 126 453.4 125.1 453.4ZM125.1 447.9H137.1L148.8 431H143.6C143.4 431.1 143.2 431.1 143 431H126.4C126.2 431.1 126 431.1 125.8 431H123.3C123.1 431.1 122.9 431.1 122.7 431H107.8C107.6 431.1 107.4 431.1 107.2 431H106.7L110.9 436.9C111.1 437 111.2 437.2 111.2 437.4L118.8 447.9H125.1ZM127.9 429H141.5C139.9 426.9 137.4 425.6 134.7 425.6C132 425.6 129.5 426.9 127.9 429ZM123.7 429H125.6C126.9 426.7 129 425 131.5 424.1C129.6 422.4 127.1 421.5 124.6 421.5C121.9 421.5 119.4 422.5 117.4 424.3C119.9 424.9 122.3 426.6 123.7 429ZM109.4 429H121.2C119.8 427.2 117.6 426.1 115.3 426.1C113 426.2 110.8 427.2 109.4 429ZM158.2 427C157.9 427 157.7 427.2 157.7 427.5C157.7 427.8 157.9 428 158.2 428H165.5C165.8 428 166 427.8 166 427.5C166 427.2 165.8 427 165.5 427H158.2ZM125.1 459.4C124.5 459.4 123.9 459.2 123.4 458.7C122.5 457.8 122.5 456.3 123.4 455.4C123.8 455 124.4 454.7 125.1 454.7C125.7 454.7 126.3 454.9 126.8 455.4C127.7 456.3 127.7 457.8 126.8 458.7C126.3 459.2 125.7 459.4 125.1 459.4ZM124.9 457.3C125 457.4 125.3 457.4 125.4 457.3C125.5 457.2 125.5 456.9 125.4 456.8C125.3 456.7 125.2 456.7 125.1 456.7C125 456.7 124.9 456.7 124.9 456.8C124.7 456.9 124.7 457.1 124.9 457.3ZM224.6 457.7H187.2C186.6 457.7 186.2 457.3 186.2 456.7C186.2 456.1 186.6 455.7 187.2 455.7H224.6C225.2 455.7 225.6 456.1 225.6 456.7C225.6 457.3 225.1 457.7 224.6 457.7ZM296.4 455.6H247.2C246.6 455.6 246.2 455.2 246.2 454.6C246.2 454 246.6 453.6 247.2 453.6H296.4C297 453.6 297.4 454 297.4 454.6C297.4 455.2 297 455.6 296.4 455.6ZM382.7 454.4H369.2C368.6 454.4 368.2 454 368.2 453.4C368.2 452.8 368.6 452.4 369.2 452.4H382.7C383.3 452.4 383.7 452.8 383.7 453.4C383.7 454 383.2 454.4 382.7 454.4ZM362.3 454.4H355C354.4 454.4 354 454 354 453.4C354 452.8 354.4 452.4 355 452.4H362.3C362.9 452.4 363.3 452.8 363.3 453.4C363.3 454 362.8 454.4 362.3 454.4ZM156.6 453.6H148.3C147.7 453.6 147.3 453.2 147.3 452.6C147.3 452 147.7 451.6 148.3 451.6H156.6C157.2 451.6 157.6 452 157.6 452.6C157.6 453.2 157.2 453.6 156.6 453.6ZM109 450.8H100.7C100.1 450.8 99.7 450.4 99.7 449.8C99.7 449.2 100.1 448.8 100.7 448.8H109C109.6 448.8 110 449.2 110 449.8C110 450.4 109.6 450.8 109 450.8ZM434.3 450.7H420.8C420.2 450.7 419.8 450.3 419.8 449.7C419.8 449.1 420.2 448.7 420.8 448.7H434.3C434.9 448.7 435.3 449.1 435.3 449.7C435.3 450.3 434.8 450.7 434.3 450.7ZM428.9 445.8H406.2C405.6 445.8 405.2 445.4 405.2 444.8C405.2 444.2 405.6 443.8 406.2 443.8H428.9C429.5 443.8 429.9 444.2 429.9 444.8C429.9 445.4 429.5 445.8 428.9 445.8ZM79 444.4H69.1C68.5 444.4 68.1 444 68.1 443.4C68.1 442.8 68.5 442.4 69.1 442.4H79C79.6 442.4 80 442.8 80 443.4C80 444 79.6 444.4 79 444.4ZM473.8 440.5H465.5C464.9 440.5 464.5 440.1 464.5 439.5C464.5 438.9 464.9 438.5 465.5 438.5H473.8C474.4 438.5 474.8 438.9 474.8 439.5C474.8 440.1 474.4 440.5 473.8 440.5ZM388.5 439.7H351.1C350.5 439.7 350.1 439.3 350.1 438.7C350.1 438.1 350.5 437.7 351.1 437.7H388.5C389.1 437.7 389.5 438.1 389.5 438.7C389.5 439.3 389.1 439.7 388.5 439.7ZM337.6 439.7H300.2C299.6 439.7 299.2 439.3 299.2 438.7C299.2 438.1 299.6 437.7 300.2 437.7H337.6C338.2 437.7 338.6 438.1 338.6 438.7C338.6 439.3 338.2 439.7 337.6 439.7ZM273.4 439.7H249.3C248.7 439.7 248.3 439.3 248.3 438.7C248.3 438.1 248.7 437.7 249.3 437.7H273.4C274 437.7 274.4 438.1 274.4 438.7C274.4 439.3 274 439.7 273.4 439.7ZM235.8 439.7H223C222.4 439.7 222 439.3 222 438.7C222 438.1 222.4 437.7 223 437.7H235.9C236.5 437.7 236.9 438.1 236.9 438.7C236.9 439.3 236.4 439.7 235.8 439.7ZM205.6 439.7H197.3C196.7 439.7 196.3 439.3 196.3 438.7C196.3 438.1 196.7 437.7 197.3 437.7H205.6C206.2 437.7 206.6 438.1 206.6 438.7C206.6 439.3 206.1 439.7 205.6 439.7ZM95.5 438.7H90.2C89.6 438.7 89.2 438.3 89.2 437.7C89.2 437.1 89.6 436.7 90.2 436.7H95.5C96.1 436.7 96.5 437.1 96.5 437.7C96.5 438.3 96.1 438.7 95.5 438.7ZM71.4 437.9H54.7C54.1 437.9 53.7 437.5 53.7 436.9C53.7 436.3 54.1 435.9 54.7 435.9H71.4C72 435.9 72.4 436.3 72.4 436.9C72.4 437.5 72 437.9 71.4 437.9ZM467.5 435.1H400.7C400.1 435.1 399.7 434.7 399.7 434.1C399.7 433.5 400.1 433.1 400.7 433.1H467.5C468.1 433.1 468.5 433.5 468.5 434.1C468.5 434.7 468.1 435.1 467.5 435.1ZM253.5 433.8H246.2C245.6 433.8 245.2 433.4 245.2 432.8C245.2 432.2 245.6 431.8 246.2 431.8H253.5C254.1 431.8 254.5 432.2 254.5 432.8C254.5 433.4 254 433.8 253.5 433.8ZM239.2 433.8H225.7C225.1 433.8 224.7 433.4 224.7 432.8C224.7 432.2 225.1 431.8 225.7 431.8H239.2C239.8 431.8 240.2 432.2 240.2 432.8C240.2 433.4 239.8 433.8 239.2 433.8ZM381.4 432H344C343.4 432 343 431.6 343 431C343 430.4 343.4 430 344 430H381.4C382 430 382.4 430.4 382.4 431C382.4 431.6 381.9 432 381.4 432ZM66.2 430.7H28.8C28.2 430.7 27.8 430.3 27.8 429.7C27.8 429.1 28.2 428.7 28.8 428.7H66.2C66.8 428.7 67.2 429.1 67.2 429.7C67.2 430.3 66.8 430.7 66.2 430.7ZM191.7 428.4H171.6C171 428.4 170.6 428 170.6 427.4C170.6 426.8 171 426.4 171.6 426.4H191.7C192.3 426.4 192.7 426.8 192.7 427.4C192.7 428 192.2 428.4 191.7 428.4ZM356.2 427.3H349C348.4 427.3 348 426.9 348 426.3C348 425.7 348.4 425.3 349 425.3H356.3C356.9 425.3 357.3 425.7 357.3 426.3C357.3 426.9 356.8 427.3 356.2 427.3ZM342 427.3H328.5C327.9 427.3 327.5 426.9 327.5 426.3C327.5 425.7 327.9 425.3 328.5 425.3H342C342.6 425.3 343 425.7 343 426.3C343 426.9 342.5 427.3 342 427.3ZM289 427.2H275.5C274.9 427.2 274.5 426.8 274.5 426.2C274.5 425.6 274.9 425.2 275.5 425.2H289C289.6 425.2 290 425.6 290 426.2C290 426.8 289.6 427.2 289 427.2ZM269.5 427.2H262.2C261.6 427.2 261.2 426.8 261.2 426.2C261.2 425.6 261.6 425.2 262.2 425.2H269.5C270.1 425.2 270.5 425.6 270.5 426.2C270.5 426.8 270 427.2 269.5 427.2ZM95.5 425.1H45.9C45.3 425.1 44.9 424.7 44.9 424.1V296.8C44.9 296.2 45.3 295.8 45.9 295.8H46H50.9V292.2C50.9 291.6 51.3 291.2 51.9 291.2H53.5V190.7C53.5 190.6 53.5 190.6 53.5 190.5C53.5 190.4 53.5 190.4 53.5 190.3V167.5C53.5 166.9 53.9 166.5 54.5 166.5H97.7C98.3 166.5 98.7 166.9 98.7 167.5V197.5C98.7 198.1 98.3 198.5 97.7 198.5C97.1 198.5 96.7 198.1 96.7 197.5V190.2H87C86.4 190.2 86 189.8 86 189.2C86 188.6 86.4 188.2 87 188.2H96.6V186.2H92.3C91.7 186.2 91.3 185.8 91.3 185.2C91.3 184.6 91.7 184.2 92.3 184.2H96.6V168.5H55.5V176.7H59.3C59.9 176.7 60.3 177.1 60.3 177.7C60.3 178.3 59.9 178.7 59.3 178.7H55.5V189.5H59.7C60.3 189.5 60.7 189.9 60.7 190.5C60.7 191.1 60.3 191.5 59.7 191.5H55.5V199.5H63.8C64.4 199.5 64.8 199.9 64.8 200.5C64.8 201.1 64.4 201.5 63.8 201.5H55.5V230.5C55.6 230.5 55.7 230.5 55.7 230.5H67.6C68.2 230.5 68.6 230.9 68.6 231.5C68.6 232.1 68.2 232.5 67.6 232.5H55.7C55.6 232.5 55.5 232.5 55.5 232.5V243.4H57C57.6 243.4 58 243.8 58 244.4C58 245 57.6 245.4 57 245.4H55.4V255.9C55.6 255.7 55.8 255.6 56.1 255.6H57.2C57.8 255.6 58.2 256 58.2 256.6C58.2 257.2 57.8 257.6 57.2 257.6H56.1C55.8 257.6 55.6 257.5 55.4 257.3V260C55.5 260 55.6 259.9 55.7 259.9H59.4H63.1C63.7 259.9 64.1 260.3 64.1 260.9C64.1 261.5 63.7 261.9 63.1 261.9H59.4H55.7C55.6 261.9 55.5 261.9 55.4 261.8V275.7H59.4C60 275.7 60.4 276.1 60.4 276.7C60.4 277.3 60 277.7 59.4 277.7H55.4V291.3H70.8C71.4 291.3 71.8 291.7 71.8 292.3V295.9H76.2C76.8 295.9 77.2 296.3 77.2 296.9V315V333.2V351.4V369.6V385.5C82.6 378.1 89.9 372.6 98.3 369.3V359.5V359.4C98.3 359.1 98.4 358.8 98.7 358.6L107 344.5L107.1 344.4V267.1H92.2V276.4H99.6C100.7 276.4 101.5 277.3 101.5 278.3V280.9C101.5 282 100.6 282.8 99.6 282.8H98.3L96.2 290.9C96.1 291.3 95.7 291.7 95.2 291.7H87.8C87.4 291.7 87 291.4 86.8 291L84.1 282.8H82.7C81.6 282.8 80.8 281.9 80.8 280.9V278.3C80.8 277.2 81.7 276.4 82.7 276.4H90.1V267.1H88.4C87.8 267.1 87.4 266.7 87.4 266.1C87.4 265.5 87.8 265.1 88.4 265.1H107V263.1H88.5C87.9 263.1 87.5 262.7 87.5 262.1C87.5 261.5 87.9 261.1 88.5 261.1H107V168.6H104.8C104.2 168.6 103.8 168.2 103.8 167.6V155.3H72.9C72.3 155.3 71.9 154.9 71.9 154.3V137.5V137.3C71.9 136.7 72.3 136.3 72.9 136.3H85.1L109.1 117.8C109.2 117.7 109.3 117.7 109.4 117.6C109.3 117.2 109.3 116.8 109.3 116.3C109.3 112.6 112.3 109.6 116 109.6C117.9 109.6 119.7 110.4 120.9 111.8L225 136.3H230.2C230.6 136.3 230.9 136.5 231.1 136.8L241.3 153.8C241.5 154.1 241.5 154.5 241.3 154.8C241.1 155.1 240.8 155.3 240.4 155.3H192.8V175.7C192.8 176.3 192.4 176.7 191.8 176.7H184.6C184.1 179.2 181.9 181.1 179.3 181.1H177.9V218.6C178.4 218.7 178.8 219.1 178.8 219.6L178.9 236C178.9 239.1 176.9 241.8 174.1 242.7L188.2 275.1H196.4C196.4 275.1 196.4 275.1 196.4 275V258.3H189.1C188.5 258.3 188.1 257.9 188.1 257.3V247.6C188.1 247 188.5 246.6 189.1 246.6H237.3V237.9C237.3 237.3 237.7 236.9 238.3 236.9H343.4C344 236.9 344.4 237.3 344.4 237.9V246.6H358.5L364.4 232.8C364 232.5 363.7 232.2 363.5 231.7C363 230.9 362.9 230 363.2 229.1C363.4 228.2 364 227.5 364.8 227C365.1 226.8 365.4 226.7 365.7 226.6C365.6 226.4 365.5 226.3 365.5 226.1V214.8C361.4 214.3 358.3 210.8 358.3 206.6V202.7C358.3 202.1 358.7 201.7 359.3 201.7H362.8V175.4C361.1 174.8 359.7 173.6 358.7 171.9C357.6 170 357.4 167.9 357.9 165.8C358.4 163.7 359.8 162 361.6 160.9L378 151.5C378.5 151.2 379.1 151.4 379.4 151.9L386.4 164.1C386.5 164.3 386.6 164.6 386.5 164.9C386.4 165.2 386.3 165.4 386 165.5L382.5 167.5C382.5 167.6 382.6 167.7 382.6 167.8L403.4 287H407.4C407.9 287 408.2 287.3 408.4 287.7L413.8 307.6C415.1 306.8 416.7 306.3 418.3 306.2C419.1 300.4 421.9 290.7 426.4 277.9C427.4 275 429.1 271.8 433 271.8H446.2C449.5 271.8 451.7 274 452 277.5C452 277.6 452 277.7 452 277.7V277.8C452 277.9 452 278.1 452 278.2V299.1H456.6C461 299.1 464.6 302.7 464.6 307.1V323.9C464.6 324.1 464.6 324.2 464.5 324.4H468C468.6 324.4 469 324.8 469 325.4C469 326 468.6 326.4 468 326.4H460.3C460.3 326.7 460.4 326.9 460.4 327.2C460.5 327.7 460.5 328.1 460.5 328.6C460.5 330.6 460 332.6 459.1 334.4C458.9 334.7 458.6 334.9 458.2 334.9H455C454.9 334.9 454.8 334.9 454.7 334.9C454.5 335.2 454.3 335.4 454 335.6H479.6C480.2 335.6 480.6 336 480.6 336.6C480.6 337.2 480.2 337.6 479.6 337.6H450.9C449.9 338 448.8 338.2 447.7 338.2C446.6 338.2 445.5 338 444.5 337.6H398.8C398.2 337.6 397.8 337.2 397.8 336.6C397.8 336 398.2 335.6 398.8 335.6H419.2C418 335.3 417 334.7 416.1 333.9C414.8 332.6 414.1 330.9 414.2 329.1C414.2 329 414.2 328.8 414.2 328.7H410C409.7 328.7 409.5 328.6 409.3 328.4C409.1 328.2 409 328 409 327.7V324C409 323.9 409 323.8 409 323.8C409 323.7 409 323.6 409 323.6L409.1 316.2L394.4 288.4C394.2 288.1 394.2 287.7 394.4 287.4C394.6 287.1 394.9 286.9 395.3 286.9H398C398 286.8 398 286.8 397.9 286.7L377.6 170.2L370 174.5C370 174.6 370.1 174.7 370.1 174.8V201.6H373.6C374.2 201.6 374.6 202 374.6 202.6V206.5C374.6 210.7 371.4 214.2 367.4 214.7V226C367.4 226.2 367.3 226.4 367.2 226.6C367.2 226.6 367.2 226.6 367.3 226.6C368.2 226.8 368.9 227.4 369.4 228.2C370.1 229.5 369.9 231 369 232.1L375.1 246.4H378C378.6 246.4 379 246.8 379 247.4V257.1C379 257.7 378.6 258.1 378 258.1H349.4V275C349.4 275 349.4 275 349.4 275.1H354.6C355.2 275.1 355.6 275.5 355.6 276.1C355.6 276.7 355.2 277.1 354.6 277.1H328.7V284.8H354.6C355.2 284.8 355.6 285.2 355.6 285.8C355.6 286.4 355.2 286.8 354.6 286.8H307.7V295.5C307.7 296.1 307.3 296.5 306.7 296.5H225.5C224.9 296.5 224.5 296.1 224.5 295.5V286.8H169.1C168.5 286.8 168.1 286.4 168.1 285.8V276.1C168.1 275.5 168.5 275.1 169.1 275.1H170.9L170.2 242.9C169 242.6 167.8 242 166.9 241C165.5 239.7 164.8 237.9 164.8 236L164.7 219.6C164.7 219.3 164.8 219.1 165 218.9C165.2 218.7 165.4 218.6 165.6 218.6V181.1H160C159.4 181.1 159 180.7 159 180.1V176.7H153.6C153 176.7 152.6 176.3 152.6 175.7V155.3H149.7V158.1C149.7 161 147.3 163.4 144.4 163.4C141.5 163.4 139.1 161 139.1 158.1V155.3H129.5V161.6C129.5 164.2 128.1 166.4 126 167.7V183.9H145V182C145 181.4 145.4 181 146 181C146.6 181 147 181.4 147 182V201.6H154.6C155.7 201.6 156.5 202.5 156.5 203.5V206.1C156.5 207.2 155.6 208 154.6 208H153.3L151.2 216.1C151.1 216.5 150.7 216.9 150.2 216.9H142.8C142.4 216.9 142 216.6 141.8 216.2L139.1 208H137.7C136.6 208 135.8 207.1 135.8 206.1V203.5C135.8 202.4 136.7 201.6 137.7 201.6H145V189.4H126V344.5L134 358.5C134.2 358.7 134.4 359 134.4 359.3V359.4V369.3C134.4 369.5 134.4 369.6 134.3 369.8C138.8 371.7 143 374.3 146.8 377.6C147.2 378 147.3 378.6 146.9 379C146.5 379.4 145.9 379.5 145.5 379.1C135.9 370.8 123.2 366.8 110.6 368.2C97 369.7 84.8 377.2 77.3 388.8C77.3 388.8 77.3 388.9 77.2 388.9V405.9V423.1H95.5C96.1 423.1 96.5 423.5 96.5 424.1C96.5 424.7 96.1 425.1 95.5 425.1ZM48.1 423.1H72.6L46.9 407.6V423.1H48.1ZM49.6 406.9L75.2 422.3V406.9H49.6ZM46.9 404.9H72.6L46.9 389.4V404.9ZM49.6 388.7L75.2 404.1V388.7H49.6ZM46.9 386.7H72.6L46.9 371.2V386.7ZM49.6 370.6L75.2 386V370.6H49.6ZM115.5 366C121.3 366 127 367.1 132.3 369.1V360.3H108.3H100.2V368.5C103.4 367.4 106.8 366.7 110.2 366.3C112.1 366.1 113.8 366 115.5 366ZM46.9 368.6H72.6L46.9 353.1V368.6ZM49.6 352.4L75.2 367.8V352.4H49.6ZM126.1 358.3H131.6L126.1 348.6V358.3ZM101.1 358.3H107V348.2L101.1 358.3ZM111.5 358.3H124.1V349L111.5 358.3ZM109 336.9V357.6L123.1 347.2L109 336.9ZM46.9 350.4H72.6L46.9 334.9V350.4ZM49.6 334.2L75.2 349.6V334.2H49.6ZM110.1 335.1L124.1 345.4V324.8L110.1 335.1ZM445.2 335.9H450.8C451.6 335.6 452.3 335.1 452.9 334.4C454.3 333 455 331.2 454.9 329.3C454.8 327.5 454.1 325.9 452.9 324.6C450.2 321.9 445.8 321.9 443.1 324.6C441.8 325.9 441.1 327.5 441.1 329.3C441 331.2 441.8 333.1 443.1 334.4C443.7 335.1 444.4 335.5 445.2 335.9ZM422.5 335.9H441.6C439.9 334.2 439 332 439 329.6C439 329.6 439 329.6 438.9 329.6H436.1C435.8 329.6 435.6 329.5 435.4 329.3C435.2 329.1 435.1 328.8 435.1 328.6C435.1 327.4 435.3 326.2 435.7 325.1H425.6C426.7 326.3 427.4 327.8 427.4 329.4C427.5 331.2 426.8 333 425.5 334.2C424.8 335 423.7 335.6 422.5 335.9ZM421 325C419.8 325 418.7 325.4 417.8 326.3C417 327.1 416.5 328.2 416.5 329.4C416.5 330.7 416.9 331.9 417.8 332.7C418.7 333.6 419.8 334 421 334C422.2 334 423.3 333.5 424.2 332.7C425.1 331.8 425.6 330.6 425.5 329.4C425.5 328.2 425 327.2 424.2 326.3C423.3 325.5 422.2 325 421 325ZM109 312.7V333.4L123.1 323L109 312.7ZM456.1 333.1H457.8C458.4 331.7 458.7 330.3 458.7 328.8C458.7 328.4 458.7 328 458.6 327.6C458 322.6 454 318.6 449 318.1H448.9C448.8 318.1 448.7 318.1 448.6 318.1H448.5H448.4H448.3H447.8H447.5C447.4 318.1 447.3 318.1 447.3 318.1L446.1 318.2H446C445.9 318.2 445.8 318.2 445.8 318.2C445.5 318.3 445.1 318.4 444.7 318.5C443.2 319 441.8 319.8 440.7 320.9C439.7 321.8 438.9 323 438.4 324.2C438.4 324.3 438.4 324.3 438.3 324.4C437.9 325.4 437.6 326.4 437.5 327.4H439.2C439.3 327.4 439.4 327.4 439.5 327.4C439.9 325.8 440.7 324.2 441.9 323C445.4 319.5 451 319.5 454.5 323C456.1 324.6 457 326.8 457.1 329C456.9 330.6 456.6 331.9 456.1 333.1ZM46.9 332.2H72.6L46.9 316.7V332.2ZM49.6 316L75.2 331.4V316H49.6ZM411 326.9H415C415.3 326.2 415.7 325.6 416.3 325H411.1L411 326.9ZM449.2 316.2C454.2 316.7 458.4 320.1 459.9 324.8C460 324.7 460.2 324.7 460.3 324.7H462.8C462.7 324.6 462.7 324.4 462.7 324.2V307.4C462.7 304.1 460 301.4 456.7 301.4H452.1V307.4C452.1 311.3 449.8 313.8 446.3 313.8H425C423 313.8 421 312.9 419.7 311.5C418.9 310.6 418.4 309.6 418.3 308.5C414.3 308.8 411.1 312.2 411.1 316.3L411 323.2H436.5C437.1 322 438 320.8 439 319.8C440.4 318.5 442 317.5 443.8 316.9C444.3 316.7 444.8 316.6 445.2 316.5H445.3C445.4 316.5 445.4 316.5 445.5 316.5L447 316.3H447.1C447.2 316.3 447.3 316.3 447.3 316.3H448.1H448.2H448.6H448.7H448.8C449.1 316.1 449.2 316.1 449.2 316.2ZM110.1 311L124.1 321.3V300.7L110.1 311ZM46.9 314H72.6L46.9 298.5V314ZM49.6 297.8L75.2 313.2V297.8H49.6ZM397 289.1L409.7 313.1C410.2 311.6 411.1 310.2 412.2 309.1L406.8 289.1H402.7H397ZM433.5 311.7H446.4C449.8 311.7 450.2 308.6 450.2 307.3V299.6H438.9C436.3 299.6 433.5 301.4 433.5 304.1V311.7ZM423.9 292.4C421.9 298.8 420.7 303.9 420.3 307.3C420.1 308.6 420.7 309.5 421.2 310.1C422.1 311.1 423.5 311.7 425 311.7H431.5V304.2C431.5 302.7 432 301.4 432.9 300.4C432.9 300.3 432.9 300.3 433 300.2L434.9 295.8V295.7C435 295.4 435.2 295.1 435.3 294.9C435.3 294.9 435.3 294.8 435.4 294.8L435.6 294.6C435.6 294.6 435.6 294.6 435.6 294.5C435.6 294.5 435.6 294.4 435.7 294.4C435.8 294.3 435.8 294.2 435.9 294.2C435.9 294.2 436 294.1 436.1 294C436.2 293.9 436.2 293.9 436.3 293.8L436.5 293.6C436.6 293.5 436.7 293.5 436.7 293.4C436.8 293.3 436.9 293.3 437 293.2C437.1 293.1 437.2 293.1 437.3 293.1C437.4 293.1 437.5 293 437.6 293C437.8 293 438 292.9 438.2 292.9H444.2L447 286.5C447.2 285.5 448 284.8 448.9 284.8H449.8C449.9 284.8 450.1 284.8 450.2 284.9V278.8H428.4C427 282.8 425.7 286.6 424.6 289.9L434.4 285.9H434.5L432.9 283.5C432.6 283 432.7 282.4 433.2 282.1C433.7 281.8 434.3 281.9 434.6 282.4L439.1 289.2C439.4 289.7 439.3 290.3 438.8 290.6C438.3 290.9 437.7 290.8 437.4 290.3L435.5 287.5C435.4 287.6 435.3 287.7 435.1 287.8L424 292.3C424.1 292.4 424 292.4 423.9 292.4ZM109 288.5V309.2L123.1 298.8L109 288.5ZM436.6 296.7L436 298.2C436.9 297.8 437.9 297.7 438.9 297.7H450.2V286.9C450.1 286.9 450 287 449.8 287H449C449 287 449 287.1 448.9 287.2C448.9 287.3 448.9 287.4 448.8 287.4L445.7 294.5C445.5 294.9 445.2 295.1 444.8 295.1H438.1H438C437.9 295.1 437.9 295.2 437.8 295.2L437.7 295.3L437.5 295.4L436.7 294.8L437.4 295.5L437.3 295.6C437.2 295.7 437.2 295.7 437.2 295.7C437.2 295.7 437.2 295.8 437.1 295.8L436.9 296.1C436.9 296.1 436.8 296.3 436.6 296.7C436.7 296.6 436.6 296.6 436.6 296.7ZM110.1 286.8L124.1 297.1V276.5L110.1 286.8ZM52.9 295.8H69.9V293.2H52.9V295.8ZM282.5 294.5H305.8V286.8H282.5V294.5ZM255 294.5H280.5V286.8H255V294.5ZM226.6 294.5H253V286.8H226.6V294.5ZM88.5 289.8H94.4L96.2 282.9H86.3L88.5 289.8ZM399.9 287.1H401.5L380.8 168.6L379.5 169.4L399.9 286.6C400 286.7 400 286.9 399.9 287.1ZM109 264.3V285L123.1 274.6L109 264.3ZM307 284.8H326.8V277.1H298.9V284.8H306.8C306.9 284.8 306.9 284.8 307 284.8ZM207.7 284.8H225.3C225.4 284.8 225.5 284.8 225.5 284.8H237V277.1H207.6V284.8H207.7ZM179.5 284.8H205.7V277.1H187.7H179.6V284.8H179.5ZM170.1 284.8H177.5V277.1H170.1V284.8ZM281.5 284.8H296.9V277.1H269V284.8H281.5ZM254 284.8H267V277.1H239.1V284.8H254ZM99.5 278.3L82.7 278.4L82.8 280.9H84.5C84.6 280.9 84.7 280.8 84.8 280.8H97.4H97.5H99.4V278.3H99.5ZM429.2 276.8H450C449.6 275 448.3 273.9 446.4 273.9H433.2C431.5 273.9 430.3 274.8 429.2 276.8ZM327.8 275.1H347.5C347.5 275.1 347.5 275.1 347.5 275V258.3H198.5V275C198.5 275 198.5 275 198.5 275.1H327.8ZM178.5 275.1H186.1L172.2 243.2L172.9 275V275.1H178.5ZM110.1 262.6L124.1 272.9V252.3L110.1 262.6ZM109 240.2V260.9L123.1 250.5L109 240.2ZM370.9 256.3H377.1V248.6H374.5H371V256.3H370.9ZM348.5 256.3H369V248.6H359.3H343.8C343.7 248.6 343.7 248.6 343.6 248.6H340V256.3H348.5ZM310.1 256.3H338V248.6H310.1V256.3ZM280.1 256.3H308V248.6H280.1V256.3ZM250.2 256.3H278.1V248.6H250.2V256.3ZM223.6 256.3H248.2V248.6H238.3C238.2 248.6 238.2 248.6 238.1 248.6H223.5V256.3H223.6ZM197.5 256.3H221.6V248.6H190.2V256.3H197.5ZM110.1 238.4L124.1 248.7V228.1L110.1 238.4ZM369.9 246.6H373L367.3 233.3C367 233.4 366.7 233.4 366.3 233.4L360.7 246.6H369.9ZM339 246.6H342.5V238.9H319.7V246.6H339ZM309.1 246.6H317.8V238.9H292.3V246.6H309.1ZM279.1 246.6H290.1V238.9H264.6V246.6H279.1ZM249.2 246.6H262.6V238.9H239.3V246.6H249.2ZM166.8 220.6L166.9 236C166.9 238.8 169.2 241.1 172 241.1C174.8 241.1 177.1 238.8 177.1 236L177 220.6H166.8ZM109 216V236.7L123.1 226.3L109 216ZM366.5 228.6C366.3 228.6 366 228.7 365.8 228.8C365.5 229 365.2 229.3 365.1 229.6C365 229.9 365.1 230.3 365.2 230.7C365.3 231.1 365.7 231.3 366 231.4C366.4 231.5 366.7 231.4 367.1 231.3C367.8 230.9 368 230.1 367.6 229.4C367.4 229.1 367.1 228.8 366.8 228.7C366.7 228.6 366.6 228.6 366.5 228.6ZM110.1 214.2L124.1 224.5V204L110.1 214.2ZM167.7 181.1V218.6H176.1V181.2H167.7V181.1ZM143.5 214.9H149.4L151.2 208H141.3L143.5 214.9ZM360.2 206.7C360.2 210.1 363 212.9 366.4 212.9C369.8 212.9 372.6 210.1 372.6 206.7V203.8H369.7V205.2C369.7 207 368.2 208.5 366.4 208.5C364.6 208.5 363.1 207 363.1 205.2V203.8H360.2V206.7ZM109 191.8V212.5L123.1 202.1L109 191.8ZM365.1 203.8V205.2C365.1 205.9 365.7 206.5 366.4 206.5C367.1 206.5 367.7 205.9 367.7 205.2V203.8H365.1ZM154.5 203.5L137.7 203.6L137.8 206.1H139.5C139.6 206.1 139.7 206 139.8 206H152.4H152.5H154.4V203.5H154.5ZM364.8 201.8H368.2V175.6C367.1 176 365.9 176.1 364.8 175.9V201.8ZM110.1 190.1L124.1 200.4V179.8L110.1 190.1ZM109 168.6V188.3L123.1 177.9L110.4 168.5H109V168.6ZM126.1 187.4H145.1V185.8H126.1V187.4ZM161 179.1H179.5C181 179.1 182.3 178.1 182.7 176.7H161V179.1ZM113.8 168.6L124.1 176.2V168.4C123.6 168.5 123.1 168.6 122.5 168.6H113.8ZM154.6 174.7H190.9V155.3H166.5V156.1C166.5 157.6 165.2 158.9 163.7 158.9C162.2 158.9 160.9 157.6 160.9 156.1V155.3H154.6V174.7ZM369.1 159L362.6 162.7C361.2 163.5 360.2 164.8 359.8 166.4C359.4 168 359.6 169.6 360.4 171C362.1 173.9 365.8 174.9 368.6 173.2L374.7 169.7L369.1 159ZM370.9 158L376.6 168.7L378 167.9L384.3 164.3L378.3 153.8L370.9 158ZM111 166.6H122.4C123 166.6 123.5 166.5 124 166.3V155.5L110 165.8L111 166.6ZM105.9 166.6H107.1V155.3H105.9V166.6ZM126.1 155.3V165.1C127 164.2 127.6 162.9 127.6 161.5V155.2H126.1V155.3ZM109 155.3V164.2L121.1 155.3H109ZM141.1 155.3V158.1C141.1 159.9 142.6 161.4 144.4 161.4C146.2 161.4 147.7 159.9 147.7 158.1V155.3H141.1ZM163 155.3V156.1C163 156.5 163.4 156.9 163.8 156.9C164.2 156.9 164.6 156.5 164.6 156.1V155.3H163ZM231.1 153.3H238.7L231.2 140.8L231.1 153.3ZM207.6 153.3H228.3L218 139.2L207.6 153.3ZM191.9 153.3H204.2L193.8 139.2L183.4 153.3H191.9ZM159.3 153.3H180L169.6 139.2L159.3 153.3ZM153.6 153.3H155.8L145.4 139.2L135 153.3H153.6ZM129.5 153.3H131.6L129.5 150.4V153.3ZM125.9 153.3H127.5V147.7L121.8 140V145C121.8 145.6 121.4 146 120.8 146H116.2L111.2 152.8H124.7H124.9C125.4 152.8 125.7 153 125.9 153.3ZM105.9 153.3H107.2C107.2 153.2 107.3 153.2 107.3 153.1L105.8 151.1V153.3H105.9ZM86.7 153.3H103.8V148.4L97 139.2L86.7 153.3ZM73.9 153.3H83.3L73.9 140.6V153.3ZM105.9 147.7L109.2 152.2L113.8 145.9H112.5C111.9 145.9 111.5 145.5 111.5 144.9V138.2H105.8V147.7H105.9ZM74.7 138.3L85 152.3L95.3 138.3H91.7C91.4 138.5 91 138.5 90.8 138.3H85.9C85.6 138.5 85.2 138.5 85 138.3H74.7ZM129.5 147L133.3 152.2L143.6 138.2H140.8C140.5 138.4 140.2 138.4 139.9 138.2H129.5V147ZM147.3 138.3L157.6 152.3L167.9 138.3H147.3ZM171.5 138.3L181.8 152.3L192.1 138.3H171.5ZM195.6 138.3L205.9 152.3L216.2 138.3H195.6ZM219.8 138.3L229.1 151L229.2 138.3H225H219.8ZM98.9 138.3L103.9 145V138.3H98.9ZM123.1 138.3L127.5 144.3V138.3H123.1ZM117.8 144H119.9V141.1L117.8 144ZM113.5 144H115.3L119.5 138.3H113.5V144ZM146.4 136.3H216.3L122.3 114.2C122.5 114.9 122.7 115.6 122.7 116.4C122.7 117 122.6 117.5 122.5 118L146.4 136.3ZM140.5 136.3H143.1L121.7 119.9C120.5 121.8 118.4 123.1 116 123.1C113.5 123.1 111.2 121.7 110.1 119.6L88.3 136.3H91L108.7 122.7C109.1 122.4 109.8 122.4 110.1 122.9C110.4 123.3 110.4 124 109.9 124.3L94.3 136.3H103.9V132.7C103.9 132.1 104.3 131.7 104.9 131.7H128.6C129.2 131.7 129.6 132.1 129.6 132.7V136.3H137.3L121.7 124.3C121.3 124 121.2 123.3 121.5 122.9C121.8 122.5 122.5 122.4 122.9 122.7L140.5 136.3ZM121.9 136.3H127.6V133.7H121.9V136.3ZM113.5 136.3H119.9V133.7H113.5V136.3ZM105.9 136.3H111.6V133.7H105.9V136.3ZM116.1 111.6C113.5 111.6 111.4 113.7 111.4 116.3C111.4 118.9 113.5 121 116.1 121C118.7 121 120.8 118.9 120.8 116.3C120.8 113.7 118.7 111.6 116.1 111.6ZM477 422.5C476.7 422.5 476.4 422.4 476.2 422.1C469.2 413.6 458.9 408.7 447.9 408.7C437.9 408.7 428.2 412.9 421.3 420.2H424.7C425.3 420.2 425.7 420.6 425.7 421.2C425.7 421.8 425.3 422.2 424.7 422.2H417.4C416.8 422.2 416.4 421.8 416.4 421.2C416.4 420.6 416.8 420.2 417.4 420.2H419.5C419.3 419.8 419.4 419.4 419.7 419.1C427 411.3 437.3 406.7 448 406.7C451.8 406.7 455.5 407.3 459.1 408.3C452.3 401.5 443.1 397.7 433.4 397.7C423.3 397.7 413.5 402 406.6 409.4C406.2 409.8 405.6 409.8 405.2 409.5C404.8 409.1 404.8 408.5 405.1 408.1C407.5 405.5 410.3 403.2 413.4 401.4C413.2 401.2 413.1 401 413.1 400.7V374.6H392.8V408.6C392.8 409.2 392.4 409.6 391.8 409.6C391.2 409.6 390.8 409.2 390.8 408.6V374.6H389V408.6C389 409.2 388.6 409.6 388 409.6C387.4 409.6 387 409.2 387 408.6V374.6H378C377.4 374.6 377 374.2 377 373.6V362C377 361.4 377.4 361 378 361H385.6V356.9C385.6 356.3 386 355.9 386.6 355.9H388.9V354.6H380.4C379.8 354.6 379.4 354.2 379.4 353.6V343C379.4 342.4 379.8 342 380.4 342H425.7C426.3 342 426.7 342.4 426.7 343V353.6C426.7 354.2 426.3 354.6 425.7 354.6H416.9V355.9H419.2C419.8 355.9 420.2 356.3 420.2 356.9V361H425.5H430C430.6 361 431 361.4 431 362V373.6C431 374.2 430.6 374.6 430 374.6H418.8V398.2C418.8 398.4 418.8 398.5 418.7 398.7C423.3 396.8 428.3 395.8 433.3 395.8C444.9 395.8 455.7 400.9 463.1 409.9C468.7 412.3 473.8 416.1 477.8 421C478.1 421.4 478.1 422.1 477.7 422.4C477.5 422.5 477.2 422.5 477 422.5ZM415 374.6V400.4C415.8 399.9 416.7 399.5 417.5 399.1C417.1 399 416.8 398.6 416.8 398.1V374.5H415V374.6ZM417.8 372.6H429V363H425.9L416.3 372.6H417.8ZM404.1 372.6H413.5L423.1 363H413.7L404.1 372.6ZM391.9 372.6H401.3L410.9 363H401.5L391.9 372.6ZM387.9 372.6H389.1L398.7 363H388.8L379.3 372.5C379.2 372.6 379.2 372.6 379.1 372.6H387.9ZM378.9 363V370.1L386 363H378.9ZM413.6 361H418.2V357.9H413.6V361ZM401.1 361H411.6V356.9C411.6 356.3 412 355.9 412.6 355.9H414.9V354.6H390.8V355.9H393.1C393.7 355.9 394.1 356.3 394.1 356.9V361H401.1ZM388.4 361H392.1V357.9H387.5V361H388.4ZM416.9 352.6H424.7V344H381.4V352.6H388.9V352.2C388.9 351.6 389.3 351.2 389.9 351.2C390.5 351.2 390.9 351.6 390.9 352.2V352.6H415V352.2C415 351.6 415.4 351.2 416 351.2C416.6 351.2 417 351.6 417 352.2V352.6H416.9ZM410.1 422.3H396.6C396 422.3 395.6 421.9 395.6 421.3C395.6 420.7 396 420.3 396.6 420.3H410.1C410.7 420.3 411.1 420.7 411.1 421.3C411.1 421.9 410.7 422.3 410.1 422.3ZM314.9 421.1C314.6 421.1 314.3 421.1 314 421.1H301.6C301 421.1 300.6 420.7 300.6 420.1C300.6 419.5 301 419.1 301.6 419.1H308.9C308.6 418.9 308.3 418.6 308 418.3C306.3 416.6 305.4 414.4 305.2 412.1H303.8H299.9C299.7 414.4 298.7 416.7 297.1 418.3C295.3 420.1 292.8 421.1 290.2 421.1C289.9 421.1 289.6 421.1 289.3 421.1H279.3C278.7 421.1 278.3 420.7 278.3 420.1C278.3 419.5 278.7 419.1 279.3 419.1H284.2C283.9 418.9 283.6 418.6 283.3 418.3C281.7 416.6 280.7 414.4 280.5 412.1H279H275C274.8 414.4 273.8 416.7 272.2 418.3C270.4 420.1 267.9 421.1 265.3 421.1C265 421.1 264.7 421.1 264.4 421.1H241.3C241 421.1 240.7 421.2 240.4 421.1C237.8 421.1 235.4 420.1 233.5 418.2C231.9 416.5 230.9 414.3 230.7 412H215.8C214.9 412 214.2 411.3 214.2 410.4V409.7H212.8C210.9 409.7 209.4 408.2 209.4 406.3C209.4 404.4 210.9 402.9 212.8 402.9H214.2V401.6V401.5V383.1C214.2 377.3 216.4 371.9 220.5 367.9C224.6 363.8 230 361.6 235.7 361.6H246.8C248.6 361.6 249.7 362.6 249.9 364.2V364.3V374.8C250.6 374.9 251.3 375.2 252 375.6C253.2 376.3 253.9 377.3 253.9 378.4V395H256.8V391.1C256.8 390.5 257.2 390.1 257.8 390.1H267.6C268.2 390.1 268.6 390.5 268.6 391.1V395H307.1V391.2H301.5C300.9 391.2 300.5 390.8 300.5 390.2V381.4H270.5C270.2 381.4 269.8 381.2 269.7 380.9L258.1 362.4C257.9 362.1 257.9 361.7 258.1 361.4C258.3 361.1 258.6 360.9 259 360.9H262.8C264.7 357.5 268.2 355.2 272.1 355C275 351.5 279.2 349.5 283.7 349.5C287.9 349.5 291.9 351.3 294.7 354.3L294.8 354.4C295.6 354.3 296.4 354.3 297.2 354.4C297.3 354.3 297.4 354.2 297.5 354.1C301.4 351.8 306.1 351.4 310.3 352.9C314.1 354.3 317.2 357.2 318.8 360.8H325C325.6 360.8 326 361.2 326 361.8V379.3H328.5C329.1 379.3 329.5 379.7 329.5 380.3V390.1C329.5 390.7 329.1 391.1 328.5 391.1H324.2V394.9H328C328.8 394.9 329.5 395.6 329.5 396.4V401.2C329.5 401.3 329.5 401.3 329.5 401.4V401.5L327.4 410H328.6C329.2 410 329.6 410.4 329.6 411C329.6 411.6 329.2 412 328.6 412H324.7C324.5 414.3 323.5 416.6 321.9 418.2C321.6 418.5 321.3 418.8 321 419H323.4C324 419 324.4 419.4 324.4 420C324.4 420.6 324 421 323.4 421H315.9C315.4 421.1 315.2 421.1 314.9 421.1ZM240.5 403.6C238.5 403.6 236.5 404.4 235 405.9C233.6 407.3 232.8 409.1 232.8 411.1C232.7 413.3 233.5 415.3 235 416.8C236.5 418.3 238.4 419.1 240.5 419.1C240.7 419.1 241 419.1 241.2 419.1C243 418.9 244.6 418.2 245.9 416.9C247.4 415.4 248.2 413.4 248.2 411.2C248.1 409.2 247.3 407.4 245.9 406C244.5 404.4 242.5 403.6 240.5 403.6ZM264.5 419.1H265.7C265.8 419.1 265.8 419.1 265.9 419.1C267.7 419 269.4 418.2 270.7 416.9C272.2 415.4 273 413.4 273 411.2C272.9 409.2 272.1 407.4 270.7 406C267.7 403 262.8 403 259.8 406C258.4 407.4 257.6 409.2 257.6 411.2C257.5 413.4 258.3 415.4 259.8 416.9C261.1 418.1 262.8 418.9 264.5 419.1ZM314.1 419.1H315.6C317.4 418.9 319 418.2 320.3 416.9C321.8 415.4 322.6 413.4 322.6 411.2C322.5 409.2 321.7 407.4 320.3 406C317.3 403 312.4 403 309.4 406C308 407.4 307.2 409.2 307.2 411.2C307.1 413.4 307.9 415.4 309.4 416.9C310.7 418.1 312.3 418.9 314.1 419.1ZM289.3 419.1H290.8C292.6 418.9 294.2 418.2 295.5 416.9C297 415.4 297.8 413.4 297.8 411.2C297.7 409.2 296.9 407.4 295.5 406C292.5 403 287.6 403 284.6 406C283.2 407.4 282.4 409.2 282.4 411.2C282.3 413.4 283.1 415.4 284.6 416.9C285.9 418.1 287.5 418.9 289.3 419.1ZM246.5 419.1H259.4C259.1 418.9 258.8 418.6 258.5 418.3C256.9 416.7 255.9 414.4 255.7 412.1H254.3H250.4C250.2 414.4 249.2 416.7 247.6 418.3C247.1 418.5 246.8 418.8 246.5 419.1ZM324.5 410H325.3L327.3 402.3L318.9 402.4C320 402.9 321 403.5 321.9 404.4C323.3 406 324.2 407.9 324.5 410ZM299.7 410H301.2H305.2C305.5 407.9 306.4 406 307.9 404.4C308.7 403.6 309.6 403 310.6 402.5L298.7 402.7H294.6C295.4 403.1 296.2 403.7 296.9 404.4C298.5 406 299.4 407.9 299.7 410ZM274.9 410H276.4H280.4C280.7 407.9 281.6 406 283.1 404.4C283.8 403.7 284.6 403.1 285.4 402.7H269.8C270.6 403.1 271.4 403.7 272.1 404.4C273.7 406 274.6 407.9 274.9 410ZM250.1 410H251.6H255.6C255.9 407.9 256.8 406 258.3 404.4C259 403.7 259.8 403.1 260.6 402.7H252.2C252.5 403.2 252.8 403.6 253.1 404.1C253.4 404.6 253.2 405.2 252.7 405.5C252.2 405.8 251.6 405.6 251.3 405.1C250.7 404.1 250.1 403.2 249.3 402.4C249 402.1 248.7 401.9 248.4 401.6C248.4 401.6 248.4 401.6 248.3 401.6C246.3 400 244 399 241.5 398.8C241.2 398.8 241.2 398.8 241.1 398.8H240.9C240.8 398.8 240.8 398.8 240.7 398.8H239.8C239.7 398.8 239.6 398.8 239.6 398.8H239.5L238.2 399H238.1H238H237.9C237.9 399 237.9 399 237.8 399C235.5 399.5 233.4 400.6 231.7 402.2C229.5 404.3 228.2 407 227.9 410H230.8C231.1 407.9 232 406 233.5 404.4C237.3 400.6 243.5 400.6 247.3 404.4C248.9 406 249.9 407.9 250.1 410ZM216.3 408.8V410H226C226.2 407.3 227.2 404.7 228.9 402.5H216.4V403.7V403.8L216.3 408.8ZM212.9 404.8C212.1 404.8 211.5 405.4 211.5 406.2C211.5 407 212.1 407.6 212.9 407.6H214.3V404.7H212.9V404.8ZM250.6 400.8H298.8L327.5 400.3V396.9H267.8C267.2 396.9 266.8 396.5 266.8 395.9V392H259V395.9C259 396.5 258.6 396.9 258 396.9H253.1C252.5 396.9 252.1 396.5 252.1 395.9V378.3C252.1 378.1 251.8 377.6 251.1 377.3C250.8 377.1 250.4 377 250.1 376.8L250.2 400.4C250.3 400.5 250.5 400.7 250.6 400.8ZM216.3 400.6H230.7C232.7 398.8 235 397.6 237.5 397.1C237.6 397.1 237.6 397.1 237.6 397.1C237.7 397.1 237.8 397.1 237.8 397.1C237.8 397.1 237.8 397.1 237.9 397.1L238.4 397H238.5L239.5 396.9C239.5 396.9 239.5 396.9 239.6 396.9C239.7 396.9 239.8 396.9 239.9 396.9H240.9C241 396.9 241 396.9 241.1 396.9H241.2H241.4H241.5C241.6 396.9 241.7 396.9 241.8 396.9C244.1 397.1 246.2 397.8 248.1 399L248 364.4C247.9 364 247.8 363.6 246.8 363.6H235.8C230.6 363.6 225.7 365.6 222 369.3C218.3 373 216.3 377.9 216.3 383.1V390.5V392H226.1C226.7 392 227.1 392.4 227.1 393V397.3C227.1 397.9 226.7 398.3 226.1 398.3H216.3V400.6ZM216.3 396.4H225.1V394H216.3V396.4ZM309.2 394.9H322.2V391.1H309.2V394.9ZM302.6 389.1H327.5V386.2H302.6V389.1ZM302.6 384.2H327.5V381.3H302.6V384.2ZM271.2 379.3H324V371.3H272.9C271.5 371.3 270.3 370.1 270.3 368.7C270.3 367.3 271.5 366.1 272.9 366.1H324V362.8H306.4H285.8H282.2H263.6H261L271.2 379.3ZM272.9 368.1C272.6 368.1 272.3 368.4 272.3 368.7C272.3 369 272.6 369.3 272.9 369.3H324V368.1H272.9ZM307 360.8H316.5C315 358 312.5 355.9 309.5 354.8C306.4 353.7 303.1 353.7 300.1 355C303 356 305.5 358 307 360.8ZM287.4 360.8H304.6C302.7 358 299.4 356.3 296 356.3C292.6 356.3 289.4 358 287.4 360.8ZM282.7 360.8H285.1C286.7 357.9 289.4 355.7 292.5 354.8C290.1 352.6 287 351.4 283.7 351.4C280.3 351.4 277.1 352.7 274.6 355.1C278 355.7 281 357.8 282.7 360.8ZM265.1 360.8H280.3C278.6 358.4 275.7 356.9 272.7 356.9C269.7 356.9 266.9 358.4 265.1 360.8ZM367.3 421.1H330.6C330 421.1 329.6 420.7 329.6 420.1C329.6 419.5 330 419.1 330.6 419.1H367.3C367.9 419.1 368.3 419.5 368.3 420.1C368.3 420.7 367.8 421.1 367.3 421.1ZM214.4 421.1H177.7C177.1 421.1 176.7 420.7 176.7 420.1C176.7 419.5 177.1 419.1 177.7 419.1H214.4C215 419.1 215.4 419.5 215.4 420.1C215.4 420.7 215 421.1 214.4 421.1ZM164.3 421.1H148.4C147.8 421.1 147.4 420.7 147.4 420.1C147.4 419.5 147.8 419.1 148.4 419.1H164.3C164.9 419.1 165.3 419.5 165.3 420.1C165.3 420.7 164.8 421.1 164.3 421.1ZM499.4 416.2H485.9C485.3 416.2 484.9 415.8 484.9 415.2C484.9 414.6 485.3 414.2 485.9 414.2H499.4C500 414.2 500.4 414.6 500.4 415.2C500.4 415.8 499.9 416.2 499.4 416.2ZM383.2 416.2H375.9C375.3 416.2 374.9 415.8 374.9 415.2C374.9 414.6 375.3 414.2 375.9 414.2H383.2C383.8 414.2 384.2 414.6 384.2 415.2C384.2 415.8 383.7 416.2 383.2 416.2ZM368.5 416.2H355C354.4 416.2 354 415.8 354 415.2C354 414.6 354.4 414.2 355 414.2H368.5C369.1 414.2 369.5 414.6 369.5 415.2C369.5 415.8 369.1 416.2 368.5 416.2ZM314.9 413.9C314.3 413.9 313.6 413.7 313.1 413.2C312.1 412.2 312.1 410.6 313.1 409.7C313.6 409.2 314.2 409 314.9 409C315.6 409 316.2 409.3 316.7 409.7C317.7 410.7 317.7 412.3 316.7 413.2C316.2 413.6 315.5 413.9 314.9 413.9ZM314.9 410.9C314.8 410.9 314.6 411 314.5 411.1C314.3 411.3 314.3 411.6 314.5 411.8C314.7 412 315 412 315.2 411.8C315.4 411.6 315.4 411.3 315.2 411.1C315.1 410.9 315 410.9 314.9 410.9ZM290.1 413.9C289.5 413.9 288.8 413.7 288.3 413.2C287.3 412.2 287.3 410.6 288.3 409.7C288.8 409.2 289.4 408.9 290.1 409C290.8 409 291.4 409.3 291.9 409.7C292.9 410.7 292.9 412.2 291.9 413.2C291.4 413.6 290.7 413.9 290.1 413.9ZM290.1 410.9C290 410.9 289.8 411 289.7 411.1C289.5 411.3 289.5 411.6 289.7 411.8C289.9 412 290.2 412 290.4 411.8C290.6 411.6 290.6 411.3 290.4 411.1C290.3 410.9 290.2 410.9 290.1 410.9ZM240.5 413.9C239.9 413.9 239.2 413.7 238.7 413.2C237.7 412.2 237.7 410.6 238.7 409.7C239.2 409.2 239.8 409 240.5 409C241.2 409 241.8 409.3 242.3 409.7C243.3 410.7 243.3 412.2 242.3 413.2C241.8 413.6 241.2 413.9 240.5 413.9ZM240.5 410.9C240.4 410.9 240.2 411 240.1 411.1C239.9 411.3 239.9 411.6 240.1 411.8C240.3 412 240.6 412 240.8 411.8C241 411.6 241 411.3 240.8 411.1C240.8 410.9 240.7 410.9 240.5 410.9ZM265.3 413.9C264.7 413.9 264 413.7 263.5 413.2C262.5 412.2 262.5 410.6 263.5 409.7C264 409.2 264.6 409 265.3 409C266 409 266.6 409.3 267.1 409.7C268.1 410.7 268.1 412.3 267.1 413.2C266.6 413.6 265.9 413.9 265.3 413.9ZM265.3 410.9C265.2 410.9 265 411 264.9 411.1C264.7 411.3 264.7 411.6 264.9 411.8C265.1 412 265.4 412 265.6 411.8C265.8 411.6 265.8 411.3 265.6 411.1C265.6 410.9 265.4 410.9 265.3 410.9ZM34.6 412.5H21.2C20.6 412.5 20.2 412.1 20.2 411.5C20.2 410.9 20.6 410.5 21.2 410.5H34.7C35.3 410.5 35.7 410.9 35.7 411.5C35.7 412.1 35.2 412.5 34.6 412.5ZM505.5 411.3H482.3C481.7 411.3 481.3 410.9 481.3 410.3C481.3 409.7 481.7 409.3 482.3 409.3H491V405.9C491 405.3 491.4 404.9 492 404.9H493V395.6H490.9C490.3 395.6 489.9 395.2 489.9 394.6C489.9 394 490.3 393.6 490.9 393.6H493V384.3H492C491.4 384.3 491 383.9 491 383.3V379.4C491 378.8 491.4 378.4 492 378.4H506.9V193.7H465.7C465.1 193.7 464.7 193.3 464.7 192.7C464.7 192.1 465.1 191.7 465.7 191.7H478.2V187.8C478.2 187.2 478.6 186.8 479.2 186.8H494.4C495 186.8 495.4 187.2 495.4 187.8V191.7H507.9C508.5 191.7 508.9 192.1 508.9 192.7V378.3H510.8C511.4 378.3 511.8 378.7 511.8 379.3V383.2C511.8 383.8 511.4 384.2 510.8 384.2H509.8V393.5H511.9C512.5 393.5 512.9 393.9 512.9 394.5C512.9 395.1 512.5 395.5 511.9 395.5H509.8V404.8H510.8C511.4 404.8 511.8 405.2 511.8 405.8V409.7C511.8 410.3 511.4 410.7 510.8 410.7H506.4C506.2 411.1 505.9 411.3 505.5 411.3ZM492.9 408.8H509.8V406.9H492.9V408.8ZM495 404.9H507.8V395.6H495V404.9ZM495 393.6H507.8V384.3H495V393.6ZM508.7 382.2H509.7V380.3H492.8V382.2H508.7ZM480.1 191.7H493.3V188.8H480.1V191.7ZM176.5 408.8H108C107.4 408.8 107 408.4 107 407.8C107 407.2 107.4 406.8 108 406.8H121.5C121.5 406.6 121.6 406.5 121.7 406.3C130.8 395.2 144.3 388.8 158.6 388.8C159 388.8 159.3 388.8 159.7 388.8V367.5H154.6C154 367.5 153.6 367.1 153.6 366.5C153.6 365.9 154 365.5 154.6 365.5H159.7V357H151C150.4 357 150 356.6 150 356V344.8C150 344.2 150.4 343.8 151 343.8H158.3V339.9C158.3 339.3 158.7 338.9 159.3 338.9H161.5V335.3C161.5 334.7 161.9 334.3 162.5 334.3C163.1 334.3 163.5 334.7 163.5 335.3V338.9H165.7C166.3 338.9 166.7 339.3 166.7 339.9V343.8H183.5V339.9C183.5 339.3 183.9 338.9 184.5 338.9H186.7V335.3C186.7 334.7 187.1 334.3 187.7 334.3C188.3 334.3 188.7 334.7 188.7 335.3V338.9H190.9C191.5 338.9 191.9 339.3 191.9 339.9V343.8H201.3C201.9 343.8 202.3 344.2 202.3 344.8V356C202.3 356.6 201.9 357 201.3 357H190.5V365.6H197.8C198.4 365.6 198.8 366 198.8 366.6C198.8 367.2 198.4 367.6 197.8 367.6H190.5V389.8C190.5 390.4 190.1 390.8 189.5 390.8C188.9 390.8 188.5 390.4 188.5 389.8V367.6H186.8V389.8C186.8 390.4 186.4 390.8 185.8 390.8C185.2 390.8 184.8 390.4 184.8 389.8V367.6H165.3V389.4C176 390.9 186.1 396.2 193.5 404.2C193.9 404.6 193.9 405.2 193.4 405.6C193 406 192.4 406 192 405.5C183.4 396.2 171.2 390.8 158.5 390.8C145.1 390.8 132.6 396.6 123.8 406.7H176.4C177 406.7 177.4 407.1 177.4 407.7C177.4 408.3 177.1 408.8 176.5 408.8ZM161.6 389C162.2 389 162.7 389.1 163.3 389.1V367.6H161.6V389ZM186.8 365.6H188.5V357H186.8V365.6ZM165.3 365.6H184.8V357H165.3V365.6ZM161.6 365.6H163.3V357H161.6V365.6ZM189.5 355H200.3V345.8H197.3L188.1 355H189.5ZM176.3 355H185.3L194.5 345.8H185.5L176.3 355ZM164.6 355H173.5L182.7 345.8H173.7L164.6 355ZM160.6 355H161.7L170.9 345.8H161.5L152.4 354.9L152.3 355H160.6ZM152 345.8V352.5L158.7 345.8H152ZM185.4 343.8H189.8V340.9H185.4V343.8ZM161.1 343.8H164.7V340.9H160.3V343.8H161.1ZM19.9 408.1H1C0.4 408.1 0 407.7 0 407.1V403.2C0 402.6 0.4 402.2 1 402.2H2V392.9H0C-0.6 392.9 -1 392.5 -1 391.9C-1 391.3 -0.6 390.9 0 390.9H2.1V381.6H1C0.4 381.6 0 381.2 0 380.6V376.7C0 376.1 0.4 375.7 1 375.7H3.3V187.8C3.3 187.2 3.7 186.8 4.3 186.8H16.8V176.2C16.8 175.8 17 175.5 17.4 175.3C17.7 175.1 18.1 175.2 18.5 175.4L26.1 181.2V175C26.1 174.4 26.5 174 27.1 174C27.7 174 28.1 174.4 28.1 175V182.6V182.7L33.5 186.8H46.7C47.3 186.8 47.7 187.2 47.7 187.8C47.7 188.4 47.3 188.8 46.7 188.8H5.3V375.5H19.9C20.5 375.5 20.9 375.9 20.9 376.5V380.4C20.9 381 20.5 381.4 19.9 381.4H18.9V390.7H21C21.6 390.7 22 391.1 22 391.7C22 392.3 21.6 392.7 21 392.7H18.9V402H19.9C20.5 402 20.9 402.4 20.9 403V405.4H29.7C30.3 405.4 30.7 405.8 30.7 406.4C30.7 407 30.3 407.4 29.7 407.4H20.7C20.6 407.9 20.3 408.1 19.9 408.1ZM2 406.1H5.6C5.8 405.8 6.1 405.6 6.4 405.6H18.8V404.2H2V406.1ZM4.1 402.2H16.9V392.9H4.1V402.2ZM4.1 390.8H16.9V381.5H4.1V390.8ZM17.9 379.5H18.9V377.6H2V379.5H17.9ZM18.8 186.8H30.1L18.8 178.2V186.8ZM242.2 388.7H222.3C221.7 388.7 221.3 388.3 221.3 387.7V379.4C221.3 372.8 226.7 367.4 233.3 367.4H242.2C242.8 367.4 243.2 367.8 243.2 368.4V387.7C243.2 388.2 242.7 388.7 242.2 388.7ZM223.3 386.7H241.2V369.4H233.3C227.8 369.4 223.3 373.9 223.3 379.4V386.7ZM462.6 383.2H443.7C443.6 383.2 443.5 383.2 443.4 383.1H439.4C438.8 383.1 438.4 382.7 438.4 382.1C438.4 381.5 438.8 381.1 439.4 381.1H442.7V378.2C442.7 377.6 443.1 377.2 443.7 377.2H444.7V367.9H442.6C442 367.9 441.6 367.5 441.6 366.9C441.6 366.3 442 365.9 442.6 365.9H444.7V356.6H443.7C443.1 356.6 442.7 356.2 442.7 355.6V351.7C442.7 351.1 443.1 350.7 443.7 350.7H462.6C463.2 350.7 463.6 351.1 463.6 351.7V355.6C463.6 356.2 463.2 356.6 462.6 356.6H461.6V365.9H463.7C464.3 365.9 464.7 366.3 464.7 366.9C464.7 367.5 464.3 367.9 463.7 367.9H461.6V377.2H462.6C463.2 377.2 463.6 377.6 463.6 378.2V381.1H477.3C477.9 381.1 478.3 381.5 478.3 382.1C478.3 382.7 477.9 383.1 477.3 383.1H463C462.9 383.2 462.8 383.2 462.6 383.2ZM444.8 381.1H461.7V379.2H444.8V381.1ZM446.8 377.3H459.6V368H446.8V377.3ZM446.8 365.9H459.6V356.6H446.8V365.9ZM460.6 354.6H461.6V352.7H444.7V354.6H460.6ZM374.6 379.5H336.7C336.1 379.5 335.7 379.1 335.7 378.5C335.7 377.9 336.1 377.5 336.7 377.5H374.6C375.2 377.5 375.6 377.9 375.6 378.5C375.6 379.1 375.2 379.5 374.6 379.5ZM500.8 357.6H496C495.4 357.6 495 357.2 495 356.6V350.8C495 350.2 495.4 349.8 496 349.8H500.8C501.4 349.8 501.8 350.2 501.8 350.8V356.6C501.8 357.2 501.3 357.6 500.8 357.6ZM497 355.6H499.8V351.8H497V355.6ZM249.9 352.6H212C211.4 352.6 211 352.2 211 351.6C211 351 211.4 350.6 212 350.6H224.5V347.1C224.5 346.5 224.9 346.1 225.5 346.1H226.5V336.8H224.4C223.8 336.8 223.4 336.4 223.4 335.8C223.4 335.2 223.8 334.8 224.4 334.8H226.5V325.5H225.5C225 325.5 224.6 325.2 224.5 324.7C224.4 324.7 224.4 324.6 224.4 324.6C217.5 317.2 207.7 312.9 197.6 312.9C186.6 312.9 176.3 317.8 169.3 326.3C168.9 326.7 168.3 326.8 167.9 326.4C167.5 326 167.4 325.4 167.8 325C171.8 320.1 176.9 316.4 182.5 313.9C189.9 305 200.7 299.8 212.3 299.8C223 299.8 233.3 304.3 240.6 312.2C241 312.6 241 313.2 240.5 313.6C240.1 314 239.5 314 239.1 313.5C232.2 306.1 222.4 301.8 212.3 301.8C202.6 301.8 193.4 305.6 186.6 312.4C190.1 311.3 193.9 310.8 197.7 310.8C207.7 310.8 217.4 314.8 224.6 321.8V320.6C224.6 320 225 319.6 225.6 319.6H244.5C245.1 319.6 245.5 320 245.5 320.6V324.5C245.5 325.1 245.1 325.5 244.5 325.5H243.5V334.8H245.6C246.2 334.8 246.6 335.2 246.6 335.8C246.6 336.4 246.2 336.8 245.6 336.8H243.5V346.1H244.5C245.1 346.1 245.5 346.5 245.5 347.1V350.6H250.1C250.7 350.6 251.1 351 251.1 351.6C251.1 352.2 250.4 352.6 249.9 352.6ZM226.5 350H243.4V348.1H226.5V350ZM228.5 346.1H241.3V336.8H228.5V346.1ZM228.5 334.8H241.3V325.5H228.5V334.8ZM242.3 323.4H243.3V321.5H226.4V323.4H242.3ZM363.4 343C362.8 343 362.4 342.6 362.4 342V336.4H360.5H348.8H339V342C339 342.6 338.6 343 338 343C337.4 343 337 342.6 337 342V336.4H325.8C325.2 336.4 324.8 336 324.8 335.4V313.2C324.8 312.6 325.2 312.2 325.8 312.2H335.9H337.1C337.1 312.1 337.1 312 337.1 311.9V308.3C336.4 308 335.8 307.5 335.4 306.9C334.9 306.1 334.8 305.2 335.1 304.4C335.3 303.5 335.9 302.8 336.7 302.4C336.9 302.3 337 302.2 337.2 302.2V298.4C337.2 297.8 337.6 297.4 338.2 297.4C338.8 297.4 339.2 297.8 339.2 298.4V302.1C340.1 302.3 340.9 302.8 341.4 303.7C341.9 304.5 342 305.4 341.7 306.2C341.5 307.1 340.9 307.8 340.1 308.2C339.8 308.4 339.5 308.5 339.2 308.5V312C339.2 312.1 339.2 312.2 339.2 312.3H348.4H360.1H362.6C362.6 312.2 362.6 312.1 362.6 312V308.4C361.9 308.1 361.3 307.6 360.9 307C360.4 306.2 360.3 305.3 360.6 304.5C360.8 303.6 361.4 302.9 362.2 302.5C362.4 302.4 362.5 302.3 362.7 302.3V298.5C362.7 297.9 363.1 297.5 363.7 297.5C364.3 297.5 364.7 297.9 364.7 298.5V302.2C365.6 302.4 366.4 302.9 366.9 303.8C367.4 304.6 367.5 305.5 367.2 306.3C367 307.2 366.4 307.9 365.6 308.3C365.3 308.5 365 308.6 364.7 308.6V312.1C364.7 312.2 364.7 312.3 364.7 312.4H372H376.4C377 312.4 377.4 312.8 377.4 313.4V335.6C377.4 336.2 377 336.6 376.4 336.6H364.7V342.2C364.4 342.5 364 343 363.4 343ZM362.2 334.4H375.2V314.2H372.4L362.2 334.4ZM350.4 334.4H359.9L370.1 314.2H360.6L350.4 334.4ZM338.6 334.4H348.1L358.3 314.2H348.8L338.6 334.4ZM326.8 334.4H336.4L346.6 314.2H336.6L327 333.6C327 333.7 326.9 333.7 326.9 333.8V334.4H326.8ZM326.8 314.2V329.4L334.3 314.2H326.8ZM363.6 303.9C363.4 303.9 363.1 304 362.9 304.1C362.6 304.3 362.3 304.6 362.3 304.9C362.2 305.2 362.3 305.6 362.4 305.9C362.8 306.6 363.7 306.8 364.3 306.4C364.6 306.2 364.9 305.9 364.9 305.6C365 305.3 364.9 304.9 364.8 304.6C364.6 304.1 364.1 303.9 363.6 303.9ZM338.3 303.9C338.1 303.9 337.8 304 337.6 304.1C337.3 304.3 337 304.6 337 304.9C336.9 305.2 337 305.6 337.1 305.9C337.5 306.6 338.4 306.8 339 306.4C339.3 306.2 339.6 305.9 339.6 305.6C339.7 305.3 339.6 304.9 339.5 304.6C339.2 304.1 338.7 303.9 338.3 303.9ZM500.8 342.6H496C495.4 342.6 495 342.2 495 341.6V335.8C495 335.2 495.4 334.8 496 334.8H500.8C501.4 334.8 501.8 335.2 501.8 335.8V341.6C501.8 342.2 501.3 342.6 500.8 342.6ZM497 340.6H499.8V336.8H497V340.6ZM421 332.2C420.3 332.2 419.7 331.9 419.1 331.4C418.1 330.4 418.1 328.7 419.1 327.7C419.6 327.2 420.2 326.9 420.9 326.9C421.6 326.9 422.3 327.2 422.8 327.7C423.8 328.7 423.8 330.4 422.8 331.4C422.3 331.9 421.7 332.2 421 332.2ZM420.6 330C420.8 330.2 421.2 330.2 421.5 330C421.7 329.8 421.7 329.4 421.5 329.1C421.4 329 421.2 328.9 421 328.9C420.9 328.9 420.7 329 420.6 329.1C420.3 329.3 420.3 329.7 420.6 330ZM447.9 332.2C447.2 332.2 446.6 331.9 446 331.4C445 330.4 445 328.7 446 327.7C446.5 327.2 447.1 326.9 447.8 326.9C448.5 326.9 449.2 327.2 449.7 327.7C450.7 328.7 450.7 330.4 449.7 331.4C449.3 331.9 448.6 332.2 447.9 332.2ZM447.5 330C447.7 330.2 448.1 330.2 448.4 330C448.6 329.8 448.6 329.4 448.4 329.1C448.3 329 448.1 328.9 447.9 328.9C447.7 328.9 447.6 329 447.5 329.1C447.2 329.3 447.3 329.7 447.5 330ZM312.3 328.1H263.4C262.8 328.1 262.4 327.7 262.4 327.1C262.4 326.5 262.8 326.1 263.4 326.1H312.3C312.9 326.1 313.3 326.5 313.3 327.1C313.3 327.7 312.8 328.1 312.3 328.1ZM500.8 327.7H496C495.4 327.7 495 327.3 495 326.7V320.9C495 320.3 495.4 319.9 496 319.9H500.8C501.4 319.9 501.8 320.3 501.8 320.9V326.7C501.8 327.2 501.3 327.7 500.8 327.7ZM497 325.7H499.8V321.9H497V325.7ZM307.4 323.2H300C299.4 323.2 299 322.8 299 322.2C299 321.6 299.4 321.2 300 321.2H307.3C307.9 321.2 308.3 321.6 308.3 322.2C308.3 322.8 307.9 323.2 307.4 323.2ZM293.9 323.2H280.4C279.8 323.2 279.4 322.8 279.4 322.2C279.4 321.6 279.8 321.2 280.4 321.2H293.9C294.5 321.2 294.9 321.6 294.9 322.2C294.9 322.8 294.5 323.2 293.9 323.2ZM500.8 313H496C495.4 313 495 312.6 495 312V306.2C495 305.6 495.4 305.2 496 305.2H500.8C501.4 305.2 501.8 305.6 501.8 306.2V312C501.8 312.6 501.3 313 500.8 313ZM497 311H499.8V307.2H497V311ZM489.8 313H485C484.4 313 484 312.6 484 312V306.2C484 305.6 484.4 305.2 485 305.2H489.8C490.4 305.2 490.8 305.6 490.8 306.2V312C490.8 312.6 490.3 313 489.8 313ZM486 311H488.8V307.2H486V311ZM30.9 309.4H26.1C25.5 309.4 25.1 309 25.1 308.4V304.5C25.1 302.9 26.4 301.5 28.1 301.5H29C30.6 301.5 32 302.8 32 304.5V308.4C31.9 309 31.4 309.4 30.9 309.4ZM27.1 307.4H29.9V304.5C29.9 304 29.5 303.5 28.9 303.5H28C27.5 303.5 27 303.9 27 304.5V307.4H27.1ZM19.9 309.4H15.1C14.5 309.4 14.1 309 14.1 308.4V305C14.1 303.1 15.6 301.6 17.5 301.6C19.4 301.6 20.9 303.1 20.9 305V308.4C20.9 309 20.4 309.4 19.9 309.4ZM16.1 307.4H18.9V305C18.9 304.2 18.3 303.6 17.5 303.6C16.7 303.6 16.1 304.2 16.1 305V307.4ZM500.8 298.1H496C495.4 298.1 495 297.7 495 297.1V291.3C495 290.7 495.4 290.3 496 290.3H500.8C501.4 290.3 501.8 290.7 501.8 291.3V297.1C501.8 297.6 501.3 298.1 500.8 298.1ZM497 296.1H499.8V292.3H497V296.1ZM489.8 298.1H485C484.4 298.1 484 297.7 484 297.1V291.3C484 290.7 484.4 290.3 485 290.3H489.8C490.4 290.3 490.8 290.7 490.8 291.3V297.1C490.8 297.6 490.3 298.1 489.8 298.1ZM486 296.1H488.8V292.3H486V296.1ZM30.9 294.4H26.1C25.5 294.4 25.1 294 25.1 293.4V289.5C25.1 287.9 26.4 286.5 28.1 286.5H29C30.6 286.5 32 287.8 32 289.5V293.4C31.9 294 31.4 294.4 30.9 294.4ZM27.1 292.4H29.9V289.5C29.9 289 29.5 288.5 28.9 288.5H28C27.5 288.5 27 288.9 27 289.5V292.4H27.1ZM19.9 294.4H15.1C14.5 294.4 14.1 294 14.1 293.4V290C14.1 288.1 15.6 286.6 17.5 286.6C19.4 286.6 20.9 288.1 20.9 290V293.4C20.9 294 20.4 294.4 19.9 294.4ZM16.1 292.4H18.9V290C18.9 289.2 18.3 288.6 17.5 288.6C16.7 288.6 16.1 289.2 16.1 290V292.4ZM91.2 288.6C90.6 288.6 90 288.4 89.6 287.9C88.7 287 88.7 285.5 89.6 284.6C90 284.2 90.6 283.9 91.2 283.9C91.8 283.9 92.4 284.1 92.8 284.6C93.7 285.5 93.7 286.9 92.8 287.8C92.4 288.4 91.8 288.6 91.2 288.6ZM91.2 286C91.1 286 91.1 286 91 286.1C90.9 286.2 90.9 286.4 91 286.5C91.1 286.6 91.3 286.6 91.4 286.5C91.5 286.4 91.5 286.2 91.4 286.1C91.3 286 91.2 286 91.2 286ZM500.8 283.1H496C495.4 283.1 495 282.7 495 282.1V276.3C495 275.7 495.4 275.3 496 275.3H500.8C501.4 275.3 501.8 275.7 501.8 276.3V282.1C501.8 282.6 501.3 283.1 500.8 283.1ZM497 281.1H499.8V277.3H497V281.1ZM489.8 283.1H485C484.4 283.1 484 282.7 484 282.1V276.3C484 275.7 484.4 275.3 485 275.3H489.8C490.4 275.3 490.8 275.7 490.8 276.3V282.1C490.8 282.6 490.3 283.1 489.8 283.1ZM486 281.1H488.8V277.3H486V281.1ZM30.9 279.4H26.1C25.5 279.4 25.1 279 25.1 278.4V274.5C25.1 272.9 26.4 271.5 28.1 271.5H29C30.6 271.5 32 272.8 32 274.5V278.4C31.9 279 31.4 279.4 30.9 279.4ZM27.1 277.4H29.9V274.5C29.9 274 29.5 273.5 28.9 273.5H28C27.5 273.5 27 273.9 27 274.5V277.4H27.1ZM19.9 279.4H15.1C14.5 279.4 14.1 279 14.1 278.4V275C14.1 273.1 15.6 271.6 17.5 271.6C19.4 271.6 20.9 273.1 20.9 275V278.4C20.9 279 20.4 279.4 19.9 279.4ZM16.1 277.4H18.9V275C18.9 274.2 18.3 273.6 17.5 273.6C16.7 273.6 16.1 274.2 16.1 275V277.4ZM413.1 275.5C412.5 275.5 412.1 275.1 412.1 274.5V193.1C412.1 193 412.1 193 412.1 192.9C412.1 192.8 412.1 192.8 412.1 192.7V168.5C412.1 167.9 412.5 167.5 413.1 167.5H422.9V163.8H415.6C415 163.8 414.6 163.4 414.6 162.8V158.5C414.6 157.9 415 157.5 415.6 157.5H453.9C454.5 157.5 454.9 157.9 454.9 158.5V162.8C454.9 163.4 454.5 163.8 453.9 163.8H446.6V167.5H456.4C457 167.5 457.4 167.9 457.4 168.5V262.7C457.4 263.3 457 263.7 456.4 263.7C455.8 263.7 455.4 263.3 455.4 262.7V252.9H446C445.4 252.9 445 252.5 445 251.9C445 251.3 445.4 250.9 446 250.9H455.4V242H449.4C448.8 242 448.4 241.6 448.4 241C448.4 240.4 448.8 240 449.4 240H455.4V231.5C455.2 231.6 455 231.7 454.8 231.7H439.1C438.5 231.7 438.1 231.3 438.1 230.7C438.1 230.1 438.5 229.7 439.1 229.7H454.8C455 229.7 455.2 229.8 455.4 229.9V226.4H446C445.4 226.4 445 226 445 225.4C445 224.8 445.4 224.4 446 224.4H455.4V215.5H442.5C441.9 215.5 441.5 215.1 441.5 214.5C441.5 213.9 441.9 213.5 442.5 213.5H455.4V204.6H449.4C448.8 204.6 448.4 204.2 448.4 203.6C448.4 203 448.8 202.6 449.4 202.6H455.4V192.7H445.8C445.2 192.7 444.8 192.3 444.8 191.7C444.8 191.1 445.2 190.7 445.8 190.7H455.4V188.5H451C450.4 188.5 450 188.1 450 187.5C450 186.9 450.4 186.5 451 186.5H455.3V169.7H414.1V178.5H417.9C418.5 178.5 418.9 178.9 418.9 179.5C418.9 180.1 418.5 180.5 417.9 180.5H414.1V192.1H418.3C418.9 192.1 419.3 192.5 419.3 193.1C419.3 193.7 418.9 194.1 418.3 194.1H414.1V202.7H422.4C423 202.7 423.4 203.1 423.4 203.7C423.4 204.3 423 204.7 422.4 204.7H414.1V235.5C414.2 235.5 414.3 235.5 414.3 235.5H426.2C426.8 235.5 427.2 235.9 427.2 236.5C427.2 237.1 426.8 237.5 426.2 237.5H414.3C414.2 237.5 414.1 237.5 414.1 237.5V249.1H415.7C416.3 249.1 416.7 249.5 416.7 250.1C416.7 250.7 416.3 251.1 415.7 251.1H414.1V266.7C414.2 266.7 414.3 266.6 414.4 266.6H418.1H421.8C422.4 266.6 422.8 267 422.8 267.6C422.8 268.2 422.4 268.6 421.8 268.6H418.1H414.4C414.3 268.6 414.2 268.6 414.1 268.5V274.6C414.1 275 413.7 275.5 413.1 275.5ZM424.9 167.4H444.6V163.7H424.9V167.4ZM445.6 161.7H452.9V159.4H416.6V161.7H445.6ZM430.7 268.4H426.2C425.6 268.4 425.2 268 425.2 267.4C425.2 266.8 425.6 266.4 426.2 266.4H430.7C431.3 266.4 431.7 266.8 431.7 267.4C431.7 268 431.3 268.4 430.7 268.4ZM500.8 268.1H496C495.4 268.1 495 267.7 495 267.1V261.3C495 260.7 495.4 260.3 496 260.3H500.8C501.4 260.3 501.8 260.7 501.8 261.3V267.1C501.8 267.6 501.3 268.1 500.8 268.1ZM497 266.1H499.8V262.3H497V266.1ZM489.8 268.1H485C484.4 268.1 484 267.7 484 267.1V261.3C484 260.7 484.4 260.3 485 260.3H489.8C490.4 260.3 490.8 260.7 490.8 261.3V267.1C490.8 267.6 490.3 268.1 489.8 268.1ZM486 266.1H488.8V262.3H486V266.1ZM477.5 268.1H472.7C472.1 268.1 471.7 267.7 471.7 267.1V261.3C471.7 260.7 472.1 260.3 472.7 260.3H477.5C478.1 260.3 478.5 260.7 478.5 261.3V267.1C478.5 267.6 478.1 268.1 477.5 268.1ZM473.7 266.1H476.5V262.3H473.7V266.1ZM41.9 264.4H37.1C36.5 264.4 36.1 264 36.1 263.4V259.5C36.1 257.9 37.4 256.5 39.1 256.5H40C41.6 256.5 43 257.8 43 259.5V263.4C42.9 264 42.5 264.4 41.9 264.4ZM38.1 262.4H40.9V259.5C40.9 259 40.5 258.5 39.9 258.5H39C38.5 258.5 38 258.9 38 259.5V262.4H38.1ZM30.9 264.4H26.1C25.5 264.4 25.1 264 25.1 263.4V259.5C25.1 257.9 26.4 256.5 28.1 256.5H29C30.6 256.5 32 257.8 32 259.5V263.4C31.9 264 31.4 264.4 30.9 264.4ZM27.1 262.4H29.9V259.5C29.9 259 29.5 258.5 28.9 258.5H28C27.5 258.5 27 258.9 27 259.5V262.4H27.1ZM19.9 264.4H15.1C14.5 264.4 14.1 264 14.1 263.4V260C14.1 258.1 15.6 256.6 17.5 256.6C19.4 256.6 20.9 258.1 20.9 260V263.4C20.9 264 20.4 264.4 19.9 264.4ZM16.1 262.4H18.9V260C18.9 259.2 18.3 258.6 17.5 258.6C16.7 258.6 16.1 259.2 16.1 260V262.4ZM442.7 263.8H437.8C437.2 263.8 436.8 263.4 436.8 262.8C436.8 262.2 437.2 261.8 437.8 261.8H442.7C443.3 261.8 443.7 262.2 443.7 262.8C443.7 263.4 443.2 263.8 442.7 263.8ZM432.7 263.1H426.3C425.7 263.1 425.3 262.7 425.3 262.1C425.3 261.5 425.7 261.1 426.3 261.1H432.7C433.3 261.1 433.7 261.5 433.7 262.1C433.7 262.7 433.2 263.1 432.7 263.1ZM72.1 261.8H67.6C67 261.8 66.6 261.4 66.6 260.8C66.6 260.2 67 259.8 67.6 259.8H72.1C72.7 259.8 73.1 260.2 73.1 260.8C73.1 261.4 72.6 261.8 72.1 261.8ZM452.7 258.5H447.9C447.3 258.5 446.9 258.1 446.9 257.5C446.9 256.9 447.3 256.5 447.9 256.5H452.7C453.3 256.5 453.7 256.9 453.7 257.5C453.7 258 453.2 258.5 452.7 258.5ZM443.3 258.5H439.9C439.3 258.5 438.9 258.1 438.9 257.5C438.9 256.9 439.3 256.5 439.9 256.5H443.3C443.9 256.5 444.3 256.9 444.3 257.5C444.3 258 443.9 258.5 443.3 258.5ZM435.4 258.5H423.6C423 258.5 422.6 258.1 422.6 257.5C422.6 256.9 423 256.5 423.6 256.5H435.4C436 256.5 436.4 256.9 436.4 257.5C436.4 258 436 258.5 435.4 258.5ZM74 256.8H67.6C67 256.8 66.6 256.4 66.6 255.8C66.6 255.2 67 254.8 67.6 254.8H74C74.6 254.8 75 255.2 75 255.8C75 256.4 74.6 256.8 74 256.8ZM500.8 253.1H496C495.4 253.1 495 252.7 495 252.1V246.3C495 245.7 495.4 245.3 496 245.3H500.8C501.4 245.3 501.8 245.7 501.8 246.3V252.1C501.8 252.6 501.3 253.1 500.8 253.1ZM497 251.1H499.8V247.3H497V251.1ZM489.8 253.1H485C484.4 253.1 484 252.7 484 252.1V246.3C484 245.7 484.4 245.3 485 245.3H489.8C490.4 245.3 490.8 245.7 490.8 246.3V252.1C490.8 252.6 490.3 253.1 489.8 253.1ZM486 251.1H488.8V247.3H486V251.1ZM477.5 253.1H472.7C472.1 253.1 471.7 252.7 471.7 252.1V246.3C471.7 245.7 472.1 245.3 472.7 245.3H477.5C478.1 245.3 478.5 245.7 478.5 246.3V252.1C478.5 252.6 478.1 253.1 477.5 253.1ZM473.7 251.1H476.5V247.3H473.7V251.1ZM76.7 252.4H64.9C64.3 252.4 63.9 252 63.9 251.4C63.9 250.8 64.3 250.4 64.9 250.4H76.7C77.3 250.4 77.7 250.8 77.7 251.4C77.7 252 77.3 252.4 76.7 252.4ZM41.9 249.4H37.1C36.5 249.4 36.1 249 36.1 248.4V244.5C36.1 242.9 37.4 241.5 39.1 241.5H40C41.6 241.5 43 242.8 43 244.5V248.4C42.9 249 42.5 249.4 41.9 249.4ZM38.1 247.4H40.9V244.5C40.9 244 40.5 243.5 39.9 243.5H39C38.5 243.5 38 243.9 38 244.5V247.4H38.1ZM30.9 249.4H26.1C25.5 249.4 25.1 249 25.1 248.4V244.5C25.1 242.9 26.4 241.5 28.1 241.5H29C30.6 241.5 32 242.8 32 244.5V248.4C31.9 249 31.4 249.4 30.9 249.4ZM27.1 247.4H29.9V244.5C29.9 244 29.5 243.5 28.9 243.5H28C27.5 243.5 27 243.9 27 244.5V247.4H27.1ZM19.9 249.4H15.1C14.5 249.4 14.1 249 14.1 248.4V245C14.1 243.1 15.6 241.6 17.5 241.6C19.4 241.6 20.9 243.1 20.9 245V248.4C20.9 249 20.4 249.4 19.9 249.4ZM16.1 247.4H18.9V245C18.9 244.2 18.3 243.6 17.5 243.6C16.7 243.6 16.1 244.2 16.1 245V247.4ZM435.7 247.5H425.5C424.9 247.5 424.5 247.1 424.5 246.5C424.5 245.9 424.9 245.5 425.5 245.5H435.7C436.3 245.5 436.7 245.9 436.7 246.5C436.7 247.1 436.3 247.5 435.7 247.5ZM77 242.1H66.8C66.2 242.1 65.8 241.7 65.8 241.1C65.8 240.5 66.2 240.1 66.8 240.1H77C77.6 240.1 78 240.5 78 241.1C78 241.7 77.6 242.1 77 242.1ZM434.5 241.9H425.5C424.9 241.9 424.5 241.5 424.5 240.9C424.5 240.3 424.9 239.9 425.5 239.9H434.5C435.1 239.9 435.5 240.3 435.5 240.9C435.5 241.5 435 241.9 434.5 241.9ZM171.9 239C171.1 239 170.3 238.7 169.7 238.1C169.1 237.5 168.8 236.7 168.8 235.9C168.8 235.1 169.1 234.3 169.7 233.7C170.3 233.1 171.1 232.8 171.9 232.8C172.7 232.8 173.5 233.1 174.1 233.7C174.7 234.3 175 235.1 175 235.9C175 237.6 173.6 239 171.9 239ZM171.9 234.9C171.6 234.9 171.3 235 171.1 235.2C170.9 235.4 170.8 235.7 170.8 236C170.8 236.6 171.3 237.1 171.9 237.1C172.5 237.1 173 236.6 173 236C173 235.7 172.9 235.4 172.7 235.2C172.5 235 172.2 234.9 171.9 234.9ZM500.8 238.1H496C495.4 238.1 495 237.7 495 237.1V231.3C495 230.7 495.4 230.3 496 230.3H500.8C501.4 230.3 501.8 230.7 501.8 231.3V237.1C501.8 237.6 501.3 238.1 500.8 238.1ZM497 236.1H499.8V232.3H497V236.1ZM489.8 238.1H485C484.4 238.1 484 237.7 484 237.1V231.3C484 230.7 484.4 230.3 485 230.3H489.8C490.4 230.3 490.8 230.7 490.8 231.3V237.1C490.8 237.6 490.3 238.1 489.8 238.1ZM486 236.1H488.8V232.3H486V236.1ZM477.5 238.1H472.7C472.1 238.1 471.7 237.7 471.7 237.1V231.3C471.7 230.7 472.1 230.3 472.7 230.3H477.5C478.1 230.3 478.5 230.7 478.5 231.3V237.1C478.5 237.6 478.1 238.1 477.5 238.1ZM473.7 236.1H476.5V232.3H473.7V236.1ZM446.3 237.2H435.7C435.1 237.2 434.7 236.8 434.7 236.2C434.7 235.6 435.1 235.2 435.7 235.2H446.3C446.9 235.2 447.3 235.6 447.3 236.2C447.3 236.8 446.9 237.2 446.3 237.2ZM75.8 236.8H66.8C66.2 236.8 65.8 236.4 65.8 235.8C65.8 235.2 66.2 234.8 66.8 234.8H75.8C76.4 234.8 76.8 235.2 76.8 235.8C76.8 236.4 76.4 236.8 75.8 236.8ZM41.9 234.4H37.1C36.5 234.4 36.1 234 36.1 233.4V229.5C36.1 227.9 37.4 226.5 39.1 226.5H40C41.6 226.5 43 227.8 43 229.5V233.4C42.9 234 42.5 234.4 41.9 234.4ZM38.1 232.4H40.9V229.5C40.9 229 40.5 228.5 39.9 228.5H39C38.5 228.5 38 228.9 38 229.5V232.4H38.1ZM30.9 234.4H26.1C25.5 234.4 25.1 234 25.1 233.4V229.5C25.1 227.9 26.4 226.5 28.1 226.5H29C30.6 226.5 32 227.8 32 229.5V233.4C31.9 234 31.4 234.4 30.9 234.4ZM27.1 232.4H29.9V229.5C29.9 229 29.5 228.5 28.9 228.5H28C27.5 228.5 27 228.9 27 229.5V232.4H27.1ZM19.9 234.4H15.1C14.5 234.4 14.1 234 14.1 233.4V230C14.1 228.1 15.6 226.6 17.5 226.6C19.4 226.6 20.9 228.1 20.9 230V233.4C20.9 234 20.4 234.4 19.9 234.4ZM16.1 232.4H18.9V230C18.9 229.2 18.3 228.6 17.5 228.6C16.7 228.6 16.1 229.2 16.1 230V232.4ZM432.3 231.6H425.2C424.6 231.6 424.2 231.2 424.2 230.6C424.2 230 424.6 229.6 425.2 229.6H432.3C432.9 229.6 433.3 230 433.3 230.6C433.3 231.2 432.8 231.6 432.3 231.6ZM73.6 227.1H66.5C65.9 227.1 65.5 226.7 65.5 226.1C65.5 225.5 65.9 225.1 66.5 225.1H73.6C74.2 225.1 74.6 225.5 74.6 226.1C74.6 226.7 74.1 227.1 73.6 227.1ZM427.9 226.3H425.1C424.5 226.3 424.1 225.9 424.1 225.3C424.1 224.7 424.5 224.3 425.1 224.3H427.9C428.5 224.3 428.9 224.7 428.9 225.3C428.9 225.9 428.4 226.3 427.9 226.3ZM500.8 223.1H496C495.4 223.1 495 222.7 495 222.1V216.3C495 215.7 495.4 215.3 496 215.3H500.8C501.4 215.3 501.8 215.7 501.8 216.3V222.1C501.8 222.6 501.3 223.1 500.8 223.1ZM497 221.1H499.8V217.3H497V221.1ZM489.8 223.1H485C484.4 223.1 484 222.7 484 222.1V216.3C484 215.7 484.4 215.3 485 215.3H489.8C490.4 215.3 490.8 215.7 490.8 216.3V222.1C490.8 222.6 490.3 223.1 489.8 223.1ZM486 221.1H488.8V217.3H486V221.1ZM477.5 223.1H472.7C472.1 223.1 471.7 222.7 471.7 222.1V216.3C471.7 215.7 472.1 215.3 472.7 215.3H477.5C478.1 215.3 478.5 215.7 478.5 216.3V222.1C478.5 222.6 478.1 223.1 477.5 223.1ZM473.7 221.1H476.5V217.3H473.7V221.1ZM69.2 222.1H66.4C65.8 222.1 65.4 221.7 65.4 221.1C65.4 220.5 65.8 220.1 66.4 220.1H69.2C69.8 220.1 70.2 220.5 70.2 221.1C70.2 221.7 69.8 222.1 69.2 222.1ZM452.7 220.6H439.2C438.6 220.6 438.2 220.2 438.2 219.6C438.2 219 438.6 218.6 439.2 218.6H452.7C453.3 218.6 453.7 219 453.7 219.6C453.7 220.2 453.2 220.6 452.7 220.6ZM432.7 220.6H418.2C417.6 220.6 417.2 220.2 417.2 219.6C417.2 219 417.6 218.6 418.2 218.6H432.7C433.3 218.6 433.7 219 433.7 219.6C433.7 220.2 433.2 220.6 432.7 220.6ZM41.9 219.4H37.1C36.5 219.4 36.1 219 36.1 218.4V214.5C36.1 212.9 37.4 211.5 39.1 211.5H40C41.6 211.5 43 212.8 43 214.5V218.4C42.9 219 42.5 219.4 41.9 219.4ZM38.1 217.4H40.9V214.5C40.9 214 40.5 213.5 39.9 213.5H39C38.5 213.5 38 213.9 38 214.5V217.4H38.1ZM30.9 219.4H26.1C25.5 219.4 25.1 219 25.1 218.4V214.5C25.1 212.9 26.4 211.5 28.1 211.5H29C30.6 211.5 32 212.8 32 214.5V218.4C31.9 219 31.4 219.4 30.9 219.4ZM27.1 217.4H29.9V214.5C29.9 214 29.5 213.5 28.9 213.5H28C27.5 213.5 27 213.9 27 214.5V217.4H27.1ZM19.9 219.4H15.1C14.5 219.4 14.1 219 14.1 218.4V215C14.1 213.1 15.6 211.6 17.5 211.6C19.4 211.6 20.9 213.1 20.9 215V218.4C20.9 219 20.4 219.4 19.9 219.4ZM16.1 217.4H18.9V215C18.9 214.2 18.3 213.6 17.5 213.6C16.7 213.6 16.1 214.2 16.1 215V217.4ZM74 216.8H59.5C58.9 216.8 58.5 216.4 58.5 215.8C58.5 215.2 58.9 214.8 59.5 214.8H74C74.6 214.8 75 215.2 75 215.8C75 216.4 74.6 216.8 74 216.8ZM432.4 215.3H425.6C425 215.3 424.6 214.9 424.6 214.3C424.6 213.7 425 213.3 425.6 213.3H432.4C433 213.3 433.4 213.7 433.4 214.3C433.4 214.9 432.9 215.3 432.4 215.3ZM330.1 214.9H225C224.4 214.9 224 214.5 224 213.9V204.2C224 203.6 224.4 203.2 225 203.2H230.7C230.7 203.2 230.7 203.2 230.7 203.1V186.4H218.2C217.6 186.4 217.2 186 217.2 185.4C217.2 184.8 217.6 184.4 218.2 184.4H246.1V176.7H218.2C217.6 176.7 217.2 176.3 217.2 175.7C217.2 175.1 217.6 174.7 218.2 174.7H220.2V165.9C220.2 165.3 220.6 164.9 221.2 164.9H265.9C266.5 164.9 266.9 165.3 266.9 165.9V174.7H267.5L280 162.2V144C278.6 143.6 277.6 142.3 277.6 140.7V139.2H259V141.4C259 142 258.6 142.4 258 142.4C257.4 142.4 257 142 257 141.4V139.2H251.1C250.5 139.2 250.1 138.8 250.1 138.2V133C250.1 119.7 260.9 108.8 274.3 108.8H291.6V104C290.9 103.8 290.3 103.5 289.8 103.1C289.7 103.1 289.7 103.1 289.6 103.1H259C258.4 103.1 258 102.7 258 102.1V97.6C258 97 258.4 96.6 259 96.6H289.5C289.6 96.6 289.6 96.6 289.7 96.6C290.5 95.9 291.4 95.5 292.5 95.5C293.6 95.5 294.6 95.9 295.4 96.6C295.5 96.6 295.6 96.5 295.8 96.5H326.3C326.9 96.5 327.3 96.9 327.3 97.5V102C327.3 102.6 326.9 103 326.3 103H295.8C295.7 103 295.5 103 295.4 102.9C294.9 103.4 294.2 103.7 293.5 103.9V108.6H306.7C311.8 108.6 315.9 112.5 316.4 117.4H347.6C348.5 117.4 349.2 116.7 349.2 115.8V111C347.8 110 346.8 108.6 346.3 106.9L339.4 108.3C337.9 108.6 336.3 108.3 335.2 107.4C334.4 106.7 333.9 105.8 333.9 104.8C333.9 103.8 334.4 102.9 335.2 102.2C336.3 101.3 337.9 100.9 339.4 101.3L346.3 102.7C347.2 99.5 350.1 97.2 353.6 97.2C357 97.2 359.9 99.5 360.9 102.6L367.8 101.3C369.3 101 370.9 101.4 372 102.3C372.8 103 373.3 103.9 373.2 104.9C373.2 105.9 372.7 106.8 371.9 107.4C370.8 108.3 369.2 108.6 367.7 108.3L360.9 106.8C360.4 108.5 359.4 110 358 111V119.3C358 124.1 354.1 128 349.3 128H307.2C304.9 128 303 129.9 303 132.2V134C303 136.7 300.8 138.9 298.1 138.9H294.6V141.1C294.6 141.7 294.2 142.1 293.6 142.1C293 142.1 292.6 141.7 292.6 141.1V138.9H284.4V140.4C284.4 142 283.4 143.3 282 143.7V161.6L294.8 174.4H346.6C347.2 174.4 347.6 174.8 347.6 175.4V185.1C347.6 185.7 347.2 186.1 346.6 186.1H310.9V202.8C310.9 202.8 310.9 202.8 310.9 202.9H330.1C330.7 202.9 331.1 203.3 331.1 203.9V213.6C331.1 214.4 330.7 214.9 330.1 214.9ZM306.4 212.9H329.2V205.2H306.4V212.9ZM278.8 212.9H304.3V205.2H278.8V212.9ZM251.3 212.9H276.8V205.2H251.3V212.9ZM226 212.9H249.3V205.2H226V212.9ZM305.4 203.2H309C309 203.2 309 203.2 309 203.1V186.4H232.7V203.1C232.7 203.1 232.7 203.1 232.7 203.2H305.4ZM337.9 184.4H345.7V176.7H337.9V184.4ZM309.9 184.4H335.8V176.7H308V184.4H309.9ZM278.1 184.4H306V176.7H278.1V184.4ZM248.2 184.4H276.1V176.7H248.2V184.4ZM277.1 174.7H292L281.3 164C281.2 164 281.2 164 281.1 164L270.4 174.7H277.1ZM241.7 174.6H265V166.9H241.7V174.6ZM222.2 174.6H239.6V166.9H222.2V174.6ZM279.5 139.2V140.6C279.5 141.4 280.1 142 280.9 142C281.7 142 282.3 141.4 282.3 140.6V139.2H279.5ZM293.6 137.1H298.1C299.7 137.1 301 135.8 301 134.2V132.4C301 129 303.8 126.2 307.2 126.2H349.3C353 126.2 356 123.2 356 119.5V112.2C354.5 112.7 352.7 112.7 351.2 112.2V116C351.2 118 349.6 119.6 347.6 119.6H315.5C314.9 119.6 314.5 119.2 314.5 118.6C314.5 114.3 311 110.8 306.7 110.8H292.9C292.7 110.9 292.4 110.9 292.2 110.8H274.3C262.1 110.8 252.1 120.7 252.1 133V137.2H293.6V137.1ZM351.2 110C352.7 110.7 354.6 110.7 356 110V109.6H351.2V110ZM353.6 99.4C350.5 99.4 348 101.9 348 105C348 106.3 348.4 107.5 349.2 108.4C349.3 107.9 349.7 107.6 350.2 107.6H351.4C350.7 107 350.2 106 350.2 105C350.2 103.1 351.7 101.6 353.6 101.6C355.5 101.6 357 103.1 357 105C357 106 356.5 107 355.8 107.6H357C357.5 107.6 357.9 108 358 108.4C358.7 107.5 359.2 106.3 359.2 105C359.2 101.9 356.7 99.4 353.6 99.4ZM361.2 105L368.2 106.6C369.1 106.8 370.1 106.6 370.8 106.1C371.1 105.9 371.4 105.6 371.4 105.1C371.4 104.6 371.1 104.3 370.9 104.1C370.3 103.6 369.3 103.3 368.3 103.5L361.3 104.8C361.2 104.9 361.2 104.9 361.2 105ZM338.3 103.4C337.6 103.4 336.9 103.6 336.4 104C336.1 104.2 335.8 104.5 335.8 105C335.8 105.5 336.1 105.8 336.4 106C337 106.5 338 106.7 339 106.5L346 105C346 105 346 105 346 104.9V104.8L339 103.4C338.8 103.4 338.6 103.4 338.3 103.4ZM353.6 103.6C352.8 103.6 352.2 104.2 352.2 105C352.2 105.8 352.8 106.4 353.6 106.4C354.4 106.4 355 105.8 355 105C355 104.2 354.4 103.6 353.6 103.6ZM292.5 97.6C291.2 97.6 290.2 98.6 290.2 99.9C290.2 101.2 291.2 102.2 292.5 102.2C293.8 102.2 294.8 101.2 294.8 99.9C294.8 98.6 293.8 97.6 292.5 97.6ZM321.4 101.1H325.3V98.6H321.4V101.1ZM312.6 101.1H319.4V98.6H312.6V101.1ZM296.6 101.1H310.5V98.6H296.6C296.7 99 296.8 99.4 296.8 99.8C296.8 100.2 296.8 100.7 296.6 101.1ZM274.8 101.1H288.4C288.3 100.7 288.2 100.3 288.2 99.9C288.2 99.5 288.3 99.1 288.4 98.7H274.8V101.1ZM266 101.1H272.8V98.6H266V101.1ZM260 101.1H263.9V98.6H260V101.1ZM146.2 213.8C145.6 213.8 145 213.6 144.6 213.1C143.7 212.2 143.7 210.7 144.6 209.8C145 209.4 145.6 209.1 146.2 209.1C146.8 209.1 147.4 209.3 147.8 209.8C148.7 210.7 148.7 212.1 147.8 213C147.3 213.6 146.8 213.8 146.2 213.8ZM146.2 211.2C146.2 211.2 146.1 211.2 146 211.3C145.9 211.4 145.9 211.6 146 211.7C146.1 211.8 146.3 211.8 146.4 211.7C146.5 211.6 146.5 211.4 146.4 211.3C146.3 211.2 146.2 211.2 146.2 211.2ZM73.7 211.7H66.9C66.3 211.7 65.9 211.3 65.9 210.7C65.9 210.1 66.3 209.7 66.9 209.7H73.7C74.3 209.7 74.7 210.1 74.7 210.7C74.7 211.3 74.3 211.7 73.7 211.7ZM442.9 209.7H436.1C435.5 209.7 435.1 209.3 435.1 208.7C435.1 208.1 435.5 207.7 436.1 207.7H442.9C443.5 207.7 443.9 208.1 443.9 208.7C443.9 209.3 443.5 209.7 442.9 209.7ZM429.3 209.7H417C416.4 209.7 416 209.3 416 208.7C416 208.1 416.4 207.7 417 207.7H429.3C429.9 207.7 430.3 208.1 430.3 208.7C430.3 209.3 429.8 209.7 429.3 209.7ZM500.8 208.1H496C495.4 208.1 495 207.7 495 207.1V201.3C495 200.7 495.4 200.3 496 200.3H500.8C501.4 200.3 501.8 200.7 501.8 201.3V207.1C501.8 207.6 501.3 208.1 500.8 208.1ZM497 206.1H499.8V202.3H497V206.1ZM489.8 208.1H485C484.4 208.1 484 207.7 484 207.1V201.3C484 200.7 484.4 200.3 485 200.3H489.8C490.4 200.3 490.8 200.7 490.8 201.3V207.1C490.8 207.6 490.3 208.1 489.8 208.1ZM486 206.1H488.8V202.3H486V206.1ZM477.5 208.1H472.7C472.1 208.1 471.7 207.7 471.7 207.1V201.3C471.7 200.7 472.1 200.3 472.7 200.3H477.5C478.1 200.3 478.5 200.7 478.5 201.3V207.1C478.5 207.6 478.1 208.1 477.5 208.1ZM473.7 206.1H476.5V202.3H473.7V206.1ZM70.6 206.4H58.3C57.7 206.4 57.3 206 57.3 205.4C57.3 204.8 57.7 204.4 58.3 204.4H70.6C71.2 204.4 71.6 204.8 71.6 205.4C71.6 206 71.1 206.4 70.6 206.4ZM41.9 204.4H37.1C36.5 204.4 36.1 204 36.1 203.4V199.5C36.1 197.9 37.4 196.5 39.1 196.5H40C41.6 196.5 43 197.8 43 199.5V203.4C42.9 204 42.5 204.4 41.9 204.4ZM38.1 202.4H40.9V199.5C40.9 199 40.5 198.5 39.9 198.5H39C38.5 198.5 38 198.9 38 199.5V202.4H38.1ZM30.9 204.4H26.1C25.5 204.4 25.1 204 25.1 203.4V199.5C25.1 197.9 26.4 196.5 28.1 196.5H29C30.6 196.5 32 197.8 32 199.5V203.4C31.9 204 31.4 204.4 30.9 204.4ZM27.1 202.4H29.9V199.5C29.9 199 29.5 198.5 28.9 198.5H28C27.5 198.5 27 198.9 27 199.5V202.4H27.1ZM19.9 204.4H15.1C14.5 204.4 14.1 204 14.1 203.4V200C14.1 198.1 15.6 196.6 17.5 196.6C19.4 196.6 20.9 198.1 20.9 200V203.4C20.9 204 20.4 204.4 19.9 204.4ZM16.1 202.4H18.9V200C18.9 199.2 18.3 198.6 17.5 198.6C16.7 198.6 16.1 199.2 16.1 200V202.4ZM448.2 198.8H439.1C438.5 198.8 438.1 198.4 438.1 197.8C438.1 197.2 438.5 196.8 439.1 196.8H448.2C448.8 196.8 449.2 197.2 449.2 197.8C449.2 198.4 448.8 198.8 448.2 198.8ZM431.1 198.8H422.6C422 198.8 421.6 198.4 421.6 197.8C421.6 197.2 422 196.8 422.6 196.8H431.1C431.7 196.8 432.1 197.2 432.1 197.8C432.1 198.4 431.6 198.8 431.1 198.8ZM72.4 196.1H63.9C63.3 196.1 62.9 195.7 62.9 195.1C62.9 194.5 63.3 194.1 63.9 194.1H72.4C73 194.1 73.4 194.5 73.4 195.1C73.4 195.7 73 196.1 72.4 196.1ZM439.5 193.8H425.2C424.6 193.8 424.2 193.4 424.2 192.8C424.2 192.2 424.6 191.8 425.2 191.8H439.5C440.1 191.8 440.5 192.2 440.5 192.8C440.5 193.4 440 193.8 439.5 193.8ZM80.8 191.5H66.5C65.9 191.5 65.5 191.1 65.5 190.5C65.5 189.9 65.9 189.5 66.5 189.5H80.8C81.4 189.5 81.8 189.9 81.8 190.5C81.8 191.1 81.4 191.5 80.8 191.5ZM441 188.2H430.7C430.1 188.2 429.7 187.8 429.7 187.2C429.7 186.6 430.1 186.2 430.7 186.2H441C441.6 186.2 442 186.6 442 187.2C442 187.8 441.6 188.2 441 188.2ZM82.4 186.2H72.1C71.5 186.2 71.1 185.8 71.1 185.2C71.1 184.6 71.5 184.2 72.1 184.2H82.4C83 184.2 83.4 184.6 83.4 185.2C83.4 185.8 82.9 186.2 82.4 186.2ZM449 182.9H447.1C446.5 182.9 446.1 182.5 446.1 181.9C446.1 181.3 446.5 180.9 447.1 180.9H449C449.6 180.9 450 181.3 450 181.9C450 182.5 449.6 182.9 449 182.9ZM442.6 182.9H440.7C440.1 182.9 439.7 182.5 439.7 181.9C439.7 181.3 440.1 180.9 440.7 180.9H442.6C443.2 180.9 443.6 181.3 443.6 181.9C443.6 182.5 443.1 182.9 442.6 182.9ZM90.3 181.2H88.4C87.8 181.2 87.4 180.8 87.4 180.2C87.4 179.6 87.8 179.2 88.4 179.2H90.3C90.9 179.2 91.3 179.6 91.3 180.2C91.3 180.8 90.9 181.2 90.3 181.2ZM83.9 181.2H82C81.4 181.2 81 180.8 81 180.2C81 179.6 81.4 179.2 82 179.2H83.9C84.5 179.2 84.9 179.6 84.9 180.2C84.9 180.8 84.4 181.2 83.9 181.2ZM365.7 171.4C365.4 171.4 365.1 171.4 364.8 171.3C363.9 171.1 363.2 170.5 362.7 169.7C362.2 168.9 362.1 168 362.4 167.1C362.6 166.2 363.2 165.5 364 165C365.6 164.1 367.7 164.6 368.6 166.3C369.5 167.9 369 170 367.3 170.9C366.9 171.2 366.3 171.4 365.7 171.4ZM365.7 166.6C365.5 166.6 365.2 166.7 365 166.8C364.7 167 364.4 167.3 364.3 167.6C364.2 167.9 364.3 168.3 364.4 168.7C364.5 169.1 364.9 169.3 365.2 169.4C365.6 169.5 365.9 169.4 366.3 169.3C367 168.9 367.2 168.1 366.8 167.4C366.6 167.1 366.3 166.8 366 166.7C365.9 166.6 365.8 166.6 365.7 166.6ZM506.4 169.5C506.3 169.5 506.3 169.5 506.2 169.5C505.8 169.6 505.3 169.3 505.1 168.9C504.7 168.1 504.1 167.5 503.2 167.2C502.4 167 501.6 167.1 500.9 167.5C500.4 167.8 499.8 167.6 499.5 167.2C499.2 166.7 499.4 166.1 499.8 165.8C501 165.1 502.4 164.9 503.7 165.3C504.7 165.6 505.5 166.1 506.1 166.9C506.7 166.2 507.6 165.6 508.5 165.3C509.8 164.9 511.2 165.1 512.4 165.8C512.9 166.1 513 166.7 512.7 167.2C512.4 167.7 511.8 167.8 511.3 167.5C510.6 167.1 509.8 167 509 167.2C508.2 167.4 507.5 168 507.1 168.9C507.1 169.2 506.7 169.5 506.4 169.5ZM347 157.6H325.6C325 157.6 324.6 157.2 324.6 156.6C324.6 156 325 155.6 325.6 155.6H345.9C345.2 153.1 342.9 151.3 340.2 151.3C339.4 151.3 338.6 151.5 337.9 151.8C337.4 152 336.8 151.8 336.6 151.3C335.2 148.3 332.3 146.3 329 146.3C324.4 146.3 320.6 150.1 320.6 154.7C320.6 155.3 320.2 155.7 319.6 155.7C319 155.7 318.6 155.3 318.6 154.7C318.6 149 323.3 144.3 329 144.3C332.8 144.3 336.2 146.4 338 149.6C338.7 149.4 339.5 149.3 340.2 149.3C344.3 149.3 347.7 152.5 348.1 156.5C348.1 156.8 348 157.1 347.8 157.3C347.6 157.5 347.3 157.6 347 157.6ZM27.1 150.8C26.7 150.8 26.3 150.6 26.2 150.2C25.8 149.4 25.2 148.8 24.3 148.5C23.5 148.3 22.7 148.4 22 148.8C21.5 149.1 20.9 148.9 20.6 148.5C20.3 148 20.5 147.4 20.9 147.1C22.1 146.4 23.5 146.2 24.8 146.6C25.8 146.9 26.6 147.4 27.2 148.2C27.8 147.5 28.7 146.9 29.6 146.6C30.9 146.2 32.3 146.4 33.5 147.1C34 147.4 34.1 148 33.8 148.5C33.5 149 32.9 149.1 32.4 148.8C31.7 148.4 30.9 148.3 30.1 148.5C29.3 148.7 28.6 149.3 28.2 150.2C28 150.6 27.6 150.9 27.1 150.8C27.2 150.8 27.2 150.8 27.1 150.8ZM487.5 145.3H466.1C465.8 145.3 465.6 145.2 465.4 145C465.2 144.8 465.1 144.5 465.1 144.2C465.4 140.1 468.9 137 473 137C473.8 137 474.5 137.1 475.2 137.3C477 134.1 480.5 132 484.2 132C489.9 132 494.6 136.7 494.6 142.4C494.6 143 494.2 143.4 493.6 143.4C493 143.4 492.6 143 492.6 142.4C492.6 137.8 488.8 134 484.2 134C480.9 134 477.9 135.9 476.6 139C476.4 139.5 475.8 139.7 475.3 139.5C474.6 139.2 473.8 139 473 139C470.3 139 468 140.8 467.3 143.3H487.6C488.2 143.3 488.6 143.7 488.6 144.3C488.6 144.9 488.1 145.3 487.5 145.3ZM383.8 136.9C383.7 136.9 383.7 136.9 383.6 136.9C383.2 137 382.7 136.7 382.5 136.3C382.1 135.5 381.5 134.9 380.6 134.6C379.8 134.4 379 134.5 378.3 134.9C377.8 135.2 377.2 135 376.9 134.6C376.6 134.1 376.8 133.5 377.2 133.2C378.4 132.5 379.8 132.3 381.1 132.7C382.1 133 382.9 133.5 383.5 134.3C384.1 133.6 385 133 385.9 132.7C387.2 132.3 388.6 132.5 389.8 133.2C390.3 133.5 390.4 134.1 390.1 134.6C389.8 135.1 389.2 135.2 388.7 134.9C388 134.5 387.2 134.4 386.4 134.6C385.6 134.8 384.9 135.4 384.5 136.3C384.6 136.7 384.2 136.9 383.8 136.9ZM291.5 134.5H282.3C280 134.5 278.2 132.6 278.2 130.4V118.5C278.2 116.2 280.1 114.4 282.3 114.4H291.5C293.8 114.4 295.6 116.3 295.6 118.5V130.4C295.6 132.6 293.8 134.5 291.5 134.5ZM282.4 116.4C281.2 116.4 280.3 117.4 280.3 118.5V130.4C280.3 131.6 281.3 132.5 282.4 132.5H291.6C292.8 132.5 293.7 131.5 293.7 130.4V118.5C293.7 117.3 292.7 116.4 291.6 116.4H282.4ZM273.1 134.1H255.7C255.1 134.1 254.7 133.7 254.7 133.1C254.7 122.8 261.5 114.4 269.9 114.4H273.1C273.7 114.4 274.1 114.8 274.1 115.4V133.1C274.1 133.6 273.6 134.1 273.1 134.1ZM256.8 132.1H272.1V116.4H269.9C262.9 116.4 257.2 123.3 256.8 132.1ZM49.5 123.8H28C27.7 123.8 27.5 123.7 27.3 123.5C27.1 123.3 27 123 27 122.7C27.3 118.6 30.8 115.5 34.9 115.5C35.7 115.5 36.4 115.6 37.1 115.8C38.9 112.6 42.4 110.5 46.1 110.5C51.8 110.5 56.5 115.2 56.5 120.9C56.5 121.5 56.1 121.9 55.5 121.9C54.9 121.9 54.5 121.5 54.5 120.9C54.5 116.3 50.7 112.5 46.1 112.5C42.8 112.5 39.8 114.4 38.5 117.5C38.3 118 37.7 118.2 37.2 118C36.5 117.7 35.7 117.5 34.9 117.5C32.2 117.5 29.9 119.3 29.2 121.8H49.5C50.1 121.8 50.5 122.2 50.5 122.8C50.5 123.4 50 123.8 49.5 123.8ZM116.1 119.4C114.4 119.4 113 118 113 116.3C113 114.6 114.4 113.2 116.1 113.2C117.8 113.2 119.2 114.6 119.2 116.3C119.2 118 117.8 119.4 116.1 119.4ZM116.1 115.2C115.5 115.2 115 115.7 115 116.3C115 116.9 115.5 117.4 116.1 117.4C116.7 117.4 117.2 116.9 117.2 116.3C117.1 115.7 116.7 115.2 116.1 115.2ZM220.9 110.8C220.8 110.8 220.8 110.8 220.7 110.8C220.3 110.9 219.8 110.6 219.6 110.2C219.2 109.4 218.6 108.8 217.7 108.5C216.9 108.3 216.1 108.4 215.4 108.8C214.9 109.1 214.3 108.9 214 108.5C213.7 108 213.9 107.4 214.3 107.1C215.5 106.4 216.9 106.2 218.2 106.6C219.2 106.9 220 107.4 220.6 108.2C221.2 107.5 222.1 106.9 223 106.6C224.3 106.2 225.7 106.4 226.9 107.1C227.4 107.4 227.5 108 227.2 108.5C226.9 109 226.3 109.1 225.8 108.8C225.1 108.4 224.3 108.3 223.5 108.5C222.7 108.7 222 109.3 221.6 110.2C221.6 110.6 221.3 110.8 220.9 110.8ZM60.4 94.4C60 94.4 59.6 94.2 59.5 93.8C59.1 93 58.5 92.4 57.6 92.1C56.8 91.9 56 92 55.3 92.4C54.8 92.7 54.2 92.5 53.9 92.1C53.6 91.6 53.8 91 54.2 90.7C55.4 90 56.8 89.8 58.1 90.2C59.1 90.5 59.9 91 60.5 91.8C61.1 91.1 62 90.5 62.9 90.2C64.2 89.8 65.6 90 66.8 90.7C67.3 91 67.4 91.6 67.1 92.1C66.8 92.6 66.2 92.7 65.7 92.4C65 92 64.2 91.9 63.4 92.1C62.6 92.3 61.9 92.9 61.5 93.8C61.3 94.2 60.9 94.5 60.4 94.4ZM445.3 93.4C444.9 93.4 444.5 93.2 444.4 92.8C444 92 443.4 91.4 442.5 91.1C441.7 90.9 440.9 91 440.2 91.4C439.7 91.7 439.1 91.5 438.8 91.1C438.5 90.6 438.7 90 439.1 89.7C440.3 89 441.7 88.8 443 89.2C444 89.5 444.8 90 445.4 90.8C446 90.1 446.9 89.5 447.8 89.2C449.1 88.8 450.5 89 451.7 89.7C452.2 90 452.3 90.6 452 91.1C451.7 91.6 451.1 91.7 450.6 91.4C449.9 91 449.1 90.9 448.3 91.1C447.5 91.3 446.8 91.9 446.4 92.8C446.2 93.2 445.8 93.5 445.3 93.4C445.4 93.4 445.4 93.4 445.3 93.4ZM415 87.4H393.6C393.3 87.4 393.1 87.3 392.9 87.1C392.7 86.9 392.6 86.6 392.6 86.3C392.9 82.2 396.4 79.1 400.5 79.1C401.3 79.1 402 79.2 402.7 79.4C404.5 76.2 408 74.1 411.7 74.1C417.4 74.1 422.1 78.8 422.1 84.5C422.1 85.1 421.7 85.5 421.1 85.5C420.5 85.5 420.1 85.1 420.1 84.5C420.1 79.9 416.3 76.1 411.7 76.1C408.4 76.1 405.4 78 404.1 81.1C403.9 81.6 403.3 81.8 402.8 81.6C402.1 81.3 401.3 81.1 400.5 81.1C397.8 81.1 395.5 82.9 394.8 85.4H415C415.6 85.4 416 85.8 416 86.4C416 87 415.5 87.4 415 87.4ZM194.6 85H173.2C172.6 85 172.2 84.6 172.2 84C172.2 83.4 172.6 83 173.2 83H193.5C192.8 80.5 190.5 78.7 187.8 78.7C187 78.7 186.2 78.9 185.5 79.2C185 79.4 184.4 79.2 184.2 78.7C182.8 75.7 179.9 73.7 176.6 73.7C172 73.7 168.2 77.5 168.2 82.1C168.2 82.7 167.8 83.1 167.2 83.1C166.6 83.1 166.2 82.7 166.2 82.1C166.2 76.4 170.9 71.7 176.6 71.7C180.4 71.7 183.8 73.8 185.6 77C186.3 76.8 187.1 76.7 187.8 76.7C191.9 76.7 195.3 79.9 195.7 83.9C195.7 84.2 195.6 84.5 195.4 84.7C195.2 84.9 194.9 85 194.6 85ZM369 73.7C368.9 73.7 368.9 73.7 368.8 73.7C368.4 73.8 367.9 73.5 367.7 73.1C367.3 72.3 366.7 71.7 365.8 71.4C365 71.2 364.2 71.3 363.5 71.7C363 72 362.4 71.8 362.1 71.4C361.8 70.9 362 70.3 362.4 70C363.6 69.3 365 69.1 366.3 69.5C367.3 69.8 368.1 70.3 368.7 71.1C369.3 70.4 370.2 69.8 371.1 69.5C372.4 69.1 373.8 69.3 375 70C375.5 70.3 375.6 70.9 375.3 71.4C375 71.9 374.4 72 373.9 71.7C373.2 71.3 372.4 71.2 371.6 71.4C370.8 71.6 370.1 72.2 369.7 73.1C369.7 73.4 369.3 73.7 369 73.7ZM129.4 66C129.3 66 129.3 66 129.2 66C128.8 66.1 128.3 65.8 128.1 65.4C127.7 64.6 127.1 64 126.2 63.7C125.4 63.5 124.6 63.6 123.9 64C123.4 64.3 122.8 64.1 122.5 63.7C122.2 63.3 122.4 62.6 122.8 62.3C124 61.6 125.4 61.4 126.7 61.8C127.7 62.1 128.5 62.6 129.1 63.4C129.7 62.7 130.6 62.1 131.5 61.8C132.8 61.4 134.2 61.6 135.4 62.3C135.9 62.6 136 63.2 135.7 63.7C135.4 64.2 134.8 64.3 134.3 64C133.6 63.6 132.8 63.5 132 63.7C131.2 63.9 130.5 64.5 130.1 65.4C130.2 65.8 129.8 66 129.4 66ZM248.6 59.2C248.2 59.2 247.8 59 247.7 58.6C247.3 57.8 246.7 57.2 245.8 56.9C245 56.7 244.2 56.8 243.5 57.2C243 57.5 242.4 57.3 242.1 56.9C241.8 56.4 242 55.8 242.4 55.5C243.6 54.8 245 54.6 246.3 55C247.3 55.3 248.1 55.8 248.7 56.6C249.3 55.9 250.2 55.3 251.1 55C252.4 54.6 253.8 54.8 255 55.5C255.5 55.8 255.6 56.4 255.3 56.9C255 57.4 254.4 57.5 253.9 57.2C253.2 56.8 252.4 56.7 251.6 56.9C250.8 57.1 250.1 57.7 249.7 58.6C249.5 59 249.1 59.3 248.6 59.2ZM329.6 45.7C329.5 45.7 329.5 45.7 329.4 45.7C329 45.8 328.5 45.5 328.3 45.1C327.9 44.3 327.3 43.7 326.4 43.4C325.6 43.2 324.8 43.3 324.1 43.7C323.6 44 323 43.8 322.7 43.4C322.4 42.9 322.6 42.3 323 42C324.2 41.3 325.6 41.1 326.9 41.5C327.9 41.8 328.7 42.3 329.3 43.1C329.9 42.4 330.8 41.8 331.7 41.5C333 41.1 334.4 41.3 335.6 42C336.1 42.3 336.2 42.9 335.9 43.4C335.6 43.9 335 44 334.5 43.7C333.8 43.3 333 43.2 332.2 43.4C331.4 43.6 330.7 44.2 330.3 45.1C330.3 45.5 330 45.7 329.6 45.7ZM293.5 43.2H272C271.4 43.2 271 42.8 271 42.2C271 41.6 271.4 41.2 272 41.2H292.3C291.6 38.7 289.3 36.9 286.6 36.9C285.8 36.9 285 37.1 284.3 37.4C283.8 37.6 283.2 37.4 283 36.9C281.6 33.9 278.7 31.9 275.4 31.9C270.8 31.9 267 35.7 267 40.3C267 40.9 266.6 41.3 266 41.3C265.4 41.3 265 40.9 265 40.3C265 34.6 269.7 29.9 275.4 29.9C279.2 29.9 282.6 32 284.4 35.2C285.1 35 285.9 34.9 286.6 34.9C290.7 34.9 294.1 38.1 294.5 42.1C294.5 42.4 294.4 42.7 294.2 42.9C294 43.1 293.8 43.2 293.5 43.2ZM190.8 37.6C190.4 37.6 190 37.4 189.9 37C189.5 36.2 188.9 35.6 188 35.3C187.2 35.1 186.4 35.2 185.7 35.6C185.2 35.9 184.6 35.7 184.3 35.3C184 34.8 184.2 34.2 184.6 33.9C185.8 33.2 187.2 33 188.5 33.4C189.5 33.7 190.3 34.2 190.9 35C191.5 34.3 192.4 33.7 193.3 33.4C194.6 33 196 33.2 197.2 33.9C197.7 34.2 197.8 34.8 197.5 35.3C197.2 35.8 196.6 35.9 196.1 35.6C195.4 35.2 194.6 35.1 193.8 35.3C193 35.5 192.3 36.1 191.9 37C191.7 37.4 191.3 37.7 190.8 37.6C190.9 37.6 190.9 37.6 190.8 37.6Z" fill="#475467"/>
</svg>
