<?xml version="1.0" encoding="utf-8"?>
<!-- Generator: Adobe Illustrator 24.0.1, SVG Export Plug-In . SVG Version: 6.00 Build 0)  -->
<svg version="1.1" id="Layer_1" xmlns="http://www.w3.org/2000/svg" xmlns:xlink="http://www.w3.org/1999/xlink" x="0px" y="0px"
	 viewBox="0 0 24 24" style="enable-background:new 0 0 24 24;" xml:space="preserve">
<style type="text/css">
	.st0{fill:none;stroke:#475467;stroke-width:0.75;stroke-linecap:round;stroke-linejoin:round;stroke-miterlimit:10;}
	.st1{fill:none;stroke:#475467;stroke-width:0.5;stroke-linecap:round;stroke-linejoin:round;stroke-miterlimit:10;}
</style>
<g>
	<rect x="7.9" y="5.7" class="st0" width="8.2" height="3.7"/>
	<rect x="3.5" y="18.3" transform="matrix(0.5 0.866 -0.866 0.5 20.3009 3.9098)" class="st0" width="6.5" height="2.5"/>
	<circle class="st0" cx="12" cy="16.4" r="2.9"/>
	<path class="st0" d="M7.1,17.5l1.6,2.8l2.1-1.2c-1-0.5-1.7-1.5-1.7-2.6c0,0,0-0.1,0-0.1L7.1,17.5z"/>
	<path class="st0" d="M6.1,6.3c0-0.4,0-0.8,0.1-1.1H4.9v1.5h1.3C6.1,6.5,6.1,6.4,6.1,6.3z"/>
	<path class="st0" d="M6.1,8.9H4.9v1.5h1.3C6.2,9.9,6.1,9.4,6.1,8.9z"/>
	<rect x="14" y="18.3" transform="matrix(-0.5 0.866 -0.866 -0.5 42.772 14.3776)" class="st0" width="6.5" height="2.5"/>
	<path class="st0" d="M16.9,17.5l-1.6,2.8l-2.1-1.2c1-0.5,1.7-1.5,1.7-2.6c0,0,0-0.1,0-0.1L16.9,17.5z"/>
	<path class="st0" d="M17.9,6.3c0-0.4,0-0.8-0.1-1.1h1.4v1.5h-1.3C17.9,6.5,17.9,6.4,17.9,6.3z"/>
	<path class="st0" d="M17.9,8.9h1.2v1.5h-1.3C17.8,9.9,17.9,9.4,17.9,8.9z"/>
	<path class="st0" d="M17.9,6.3c0-3-2.4-5.3-5.4-5.3c-0.1,0-0.7,0-0.9,0c-3,0-5.4,2.3-5.4,5.3c0,0.4-0.1,4.8,0.2,5.5
		C6.6,12.6,7,13,8.1,13.1c0.8,0.1,1.3,1.1,1.5,1.7c0.5-0.8,1.4-1.3,2.4-1.3c1,0,1.9,0.5,2.4,1.3c0.3-0.7,0.8-1.6,1.5-1.7
		c1.1-0.2,1.5-0.5,1.8-1.3C17.9,11.1,17.9,6.7,17.9,6.3z"/>
</g>
<g>
	<circle class="st1" cx="12" cy="17.9" r="0.2"/>
	<circle class="st1" cx="12" cy="16.4" r="0.2"/>
	<circle class="st1" cx="12" cy="14.9" r="0.2"/>
	<circle class="st1" cx="10.6" cy="17.1" r="0.2"/>
	<circle class="st1" cx="10.6" cy="15.7" r="0.2"/>
	<circle class="st1" cx="13.4" cy="17.1" r="0.2"/>
	<circle class="st1" cx="13.4" cy="15.7" r="0.2"/>
</g>
</svg>
