<svg width="24" height="24" viewBox="0 0 24 24" fill="none" xmlns="http://www.w3.org/2000/svg">
<g clip-path="url(#clip0_240_5278)">
<path d="M24 12C24 5.37258 18.6274 0 12 0C5.37258 0 0 5.37258 0 12C0 18.6274 5.37258 24 12 24C18.6274 24 24 18.6274 24 12Z" fill="#EEDAAD"/>
<path d="M12 5C8.15 5 5 8.15 5 12C5 15.85 8.15 19 12 19C15.85 19 19 15.85 19 12C19 8.15 15.85 5 12 5ZM12 18.3583C8.5 18.3583 5.64167 15.5 5.64167 12C5.64167 8.5 8.5 5.64167 12 5.64167C15.5 5.64167 18.3583 8.5 18.3583 12C18.3583 15.5 15.5 18.3583 12 18.3583Z" fill="#B47B34"/>
<path d="M11.0667 11.7082H12.3501V15.3832H12.9334V9.89987H12.7001H12.3501H11.0667H10.7167H10.4834V12.9332H11.0667V11.7082ZM12.3501 10.4832V11.0665H11.0667V10.4832H12.3501ZM12.9334 15.7332L11.7084 16.9582L11.0667 16.3165V13.5749H10.4834V16.5499L11.3001 17.3665L11.7084 17.7749L12.1167 17.3665L12.9334 16.5499V15.7332ZM12.0001 8.67487V6.2832H11.4167V8.7332H8.7334V9.31654H14.7417V8.7332H12.0001V8.67487Z" fill="#B47B34"/>
<path d="M15.792 12.9336C16.2752 12.9336 16.667 12.5418 16.667 12.0586C16.667 11.5753 16.2752 11.1836 15.792 11.1836C15.3087 11.1836 14.917 11.5753 14.917 12.0586C14.917 12.5418 15.3087 12.9336 15.792 12.9336Z" fill="#E3C176"/>
<path d="M5.17503 16.6663C5.17503 16.6663 4.59169 19.1163 7.10003 18.4163C8.09169 18.1247 8.85003 17.7163 10.3084 16.783C12.1167 15.6163 14.3334 13.7497 16.6667 10.483C18.8834 7.39134 18.825 5.99134 18.2417 5.46634C17.7167 4.94134 16.7834 5.17467 16.7834 5.17467C16.7834 5.17467 18.5334 4.70801 18.8834 5.81634C19.2334 6.98301 18.7084 8.67467 16.8417 11.2413C16.2584 12.058 15.675 12.8163 14.7417 13.7497C13.225 15.383 11.5917 16.6663 9.95836 17.658C8.90836 18.2997 7.04169 19.408 5.75836 18.8247C5.05836 18.533 4.88336 17.7163 5.17503 16.6663Z" fill="#E3C176"/>
</g>
<defs>
<clipPath id="clip0_240_5278">
<rect width="24" height="24" fill="white"/>
</clipPath>
</defs>
</svg>
